<?xml version="1.0" encoding="windows-1252" standalone="no"?>
<svg xmlns="http://www.w3.org/2000/svg" xmlns:xlink="http://www.w3.org/1999/xlink" contentStyleType="text/css" height="709px" preserveAspectRatio="none" style="width:1537px;height:709px;background:#FFFFFF;" version="1.1" viewBox="0 0 1537 709" width="1537px" zoomAndPan="magnify"><defs/><g><!--cluster api_layer--><g id="cluster_api_layer"><rect fill="none" height="87" rx="2.5" ry="2.5" style="stroke:#181818;stroke-width:1.0;" width="197" x="572" y="53"/><rect fill="none" height="10" style="stroke:#181818;stroke-width:1.0;" width="15" x="749" y="58"/><rect fill="none" height="2" style="stroke:#181818;stroke-width:1.0;" width="4" x="747" y="60"/><rect fill="none" height="2" style="stroke:#181818;stroke-width:1.0;" width="4" x="747" y="64"/><text fill="#000000" font-family="sans-serif" font-size="14" font-weight="bold" lengthAdjust="spacing" textLength="71" x="635" y="78.9951">API layer</text></g><!--cluster srvc_1--><g id="cluster_srvc_1"><polygon fill="#ADD8E6" points="179,190,189,180,532,180,532,577,522,587,179,587,179,190" style="stroke:#181818;stroke-width:1.0;"/><line style="stroke:#181818;stroke-width:1.0;" x1="522" x2="532" y1="190" y2="180"/><line style="stroke:#181818;stroke-width:1.0;" x1="179" x2="522" y1="190" y2="190"/><line style="stroke:#181818;stroke-width:1.0;" x1="522" x2="522" y1="190" y2="587"/><text fill="#000000" font-family="sans-serif" font-size="14" font-weight="bold" lengthAdjust="spacing" textLength="73" x="315" y="205.9951">Service 1</text></g><!--cluster rectangle1--><g id="cluster_rectangle1"><rect fill="none" height="106" rx="2.5" ry="2.5" style="stroke:#181818;stroke-width:1.0;" width="265" x="219" y="332"/><text fill="#000000" font-family="sans-serif" font-size="14" font-weight="bold" lengthAdjust="spacing" textLength="58" x="322.5" y="346.9951">Service</text></g><!--cluster srvc_2--><g id="cluster_srvc_2"><polygon fill="#66CDAA" points="1167,325,1177,315,1520,315,1520,682,1510,692,1167,692,1167,325" style="stroke:#181818;stroke-width:1.0;"/><line style="stroke:#181818;stroke-width:1.0;" x1="1510" x2="1520" y1="325" y2="315"/><line style="stroke:#181818;stroke-width:1.0;" x1="1167" x2="1510" y1="325" y2="325"/><line style="stroke:#181818;stroke-width:1.0;" x1="1510" x2="1510" y1="325" y2="692"/><text fill="#000000" font-family="sans-serif" font-size="14" font-weight="bold" lengthAdjust="spacing" textLength="73" x="1303" y="340.9951">Service 2</text></g><!--cluster rectangle2--><g id="cluster_rectangle2"><rect fill="none" height="106" rx="2.5" ry="2.5" style="stroke:#181818;stroke-width:1.0;" width="265" x="1215" y="478"/><text fill="#000000" font-family="sans-serif" font-size="14" font-weight="bold" lengthAdjust="spacing" textLength="58" x="1318.5" y="492.9951">Service</text></g><!--cluster srvc_3--><g id="cluster_srvc_3"><polygon fill="#E6E6FA" points="774,190,784,180,1127,180,1127,577,1117,587,774,587,774,190" style="stroke:#181818;stroke-width:1.0;"/><line style="stroke:#181818;stroke-width:1.0;" x1="1117" x2="1127" y1="190" y2="180"/><line style="stroke:#181818;stroke-width:1.0;" x1="774" x2="1117" y1="190" y2="190"/><line style="stroke:#181818;stroke-width:1.0;" x1="1117" x2="1117" y1="190" y2="587"/><text fill="#000000" font-family="sans-serif" font-size="14" font-weight="bold" lengthAdjust="spacing" textLength="73" x="910" y="205.9951">Service 3</text></g><!--cluster rectangle3--><g id="cluster_rectangle3"><rect fill="none" height="106" rx="2.5" ry="2.5" style="stroke:#181818;stroke-width:1.0;" width="265" x="822" y="332"/><text fill="#000000" font-family="sans-serif" font-size="14" font-weight="bold" lengthAdjust="spacing" textLength="58" x="925.5" y="346.9951">Service</text></g><!--entity api1--><g id="elem_api1"><rect fill="#ADD8E6" height="20" rx="2.5" ry="2.5" style="stroke:#181818;stroke-width:0.5;" width="20" x="615" y="96"/></g><!--entity api2--><g id="elem_api2"><rect fill="#66CDAA" height="20" rx="2.5" ry="2.5" style="stroke:#181818;stroke-width:0.5;" width="20" x="725" y="96"/></g><!--entity api3--><g id="elem_api3"><rect fill="#E6E6FA" height="20" rx="2.5" ry="2.5" style="stroke:#181818;stroke-width:0.5;" width="20" x="670" y="96"/></g><!--entity lb1--><g id="elem_lb1"><rect fill="#F1F1F1" height="62.5938" rx="2.5" ry="2.5" style="stroke:#181818;stroke-width:0.5;" width="102" x="203" y="228"/><rect fill="#F1F1F1" height="10" style="stroke:#181818;stroke-width:0.5;" width="15" x="285" y="233"/><rect fill="#F1F1F1" height="2" style="stroke:#181818;stroke-width:0.5;" width="4" x="283" y="235"/><rect fill="#F1F1F1" height="2" style="stroke:#181818;stroke-width:0.5;" width="4" x="283" y="239"/><text fill="#000000" font-family="sans-serif" font-size="14" lengthAdjust="spacing" textLength="34" x="218" y="260.9951">Load</text><text fill="#000000" font-family="sans-serif" font-size="14" lengthAdjust="spacing" textLength="62" x="218" y="277.292">balancer</text></g><!--entity db1--><g id="elem_db1"><path d="M203,528 C203,518 247,518 247,518 C247,518 291,518 291,528 L291,553.2969 C291,563.2969 247,563.2969 247,563.2969 C247,563.2969 203,563.2969 203,553.2969 L203,528 " fill="#FFFF00" style="stroke:#181818;stroke-width:2.0;"/><path d="M203,528 C203,538 247,538 247,538 C247,538 291,538 291,528 " fill="none" style="stroke:#181818;stroke-width:2.0;"/><text fill="#000000" font-family="sans-serif" font-size="14" lengthAdjust="spacing" textLength="68" x="213" y="554.9951">Database</text></g><!--entity module1--><g id="elem_module1"><rect fill="#F1F1F1" height="39.2969" rx="2.5" ry="2.5" style="stroke:#181818;stroke-width:0.5;" width="81" x="378.5" y="375"/><polygon fill="#F1F1F1" points="442.5,380,442.5,394,454.5,394,454.5,386,448.5,380,442.5,380" style="stroke:#181818;stroke-width:0.5;"/><line style="stroke:#181818;stroke-width:0.5;" x1="448.5" x2="448.5" y1="380" y2="386"/><line style="stroke:#181818;stroke-width:0.5;" x1="454.5" x2="448.5" y1="386" y2="386"/><text fill="#000000" font-family="sans-serif" font-size="14" lengthAdjust="spacing" textLength="51" x="388.5" y="400.9951">Module</text></g><!--entity module2--><g id="elem_module2"><rect fill="#F1F1F1" height="39.2969" rx="2.5" ry="2.5" style="stroke:#181818;stroke-width:0.5;" width="81" x="262.5" y="375"/><polygon fill="#F1F1F1" points="326.5,380,326.5,394,338.5,394,338.5,386,332.5,380,326.5,380" style="stroke:#181818;stroke-width:0.5;"/><line style="stroke:#181818;stroke-width:0.5;" x1="332.5" x2="332.5" y1="380" y2="386"/><line style="stroke:#181818;stroke-width:0.5;" x1="338.5" x2="332.5" y1="386" y2="386"/><text fill="#000000" font-family="sans-serif" font-size="14" lengthAdjust="spacing" textLength="51" x="272.5" y="400.9951">Module</text></g><!--entity lb2--><g id="elem_lb2"><rect fill="#F1F1F1" height="62.5938" rx="2.5" ry="2.5" style="stroke:#181818;stroke-width:0.5;" width="102" x="1210" y="363"/><rect fill="#F1F1F1" height="10" style="stroke:#181818;stroke-width:0.5;" width="15" x="1292" y="368"/><rect fill="#F1F1F1" height="2" style="stroke:#181818;stroke-width:0.5;" width="4" x="1290" y="370"/><rect fill="#F1F1F1" height="2" style="stroke:#181818;stroke-width:0.5;" width="4" x="1290" y="374"/><text fill="#000000" font-family="sans-serif" font-size="14" lengthAdjust="spacing" textLength="34" x="1225" y="395.9951">Load</text><text fill="#000000" font-family="sans-serif" font-size="14" lengthAdjust="spacing" textLength="62" x="1225" y="412.292">balancer</text></g><!--entity db2--><g id="elem_db2"><path d="M1199,633 C1199,623 1243,623 1243,623 C1243,623 1287,623 1287,633 L1287,658.2969 C1287,668.2969 1243,668.2969 1243,668.2969 C1243,668.2969 1199,668.2969 1199,658.2969 L1199,633 " fill="#FFFF00" style="stroke:#181818;stroke-width:2.0;"/><path d="M1199,633 C1199,643 1243,643 1243,643 C1243,643 1287,643 1287,633 " fill="none" style="stroke:#181818;stroke-width:2.0;"/><text fill="#000000" font-family="sans-serif" font-size="14" lengthAdjust="spacing" textLength="68" x="1209" y="659.9951">Database</text></g><!--entity module3--><g id="elem_module3"><rect fill="#F1F1F1" height="39.2969" rx="2.5" ry="2.5" style="stroke:#181818;stroke-width:0.5;" width="81" x="1374.5" y="521"/><polygon fill="#F1F1F1" points="1438.5,526,1438.5,540,1450.5,540,1450.5,532,1444.5,526,1438.5,526" style="stroke:#181818;stroke-width:0.5;"/><line style="stroke:#181818;stroke-width:0.5;" x1="1444.5" x2="1444.5" y1="526" y2="532"/><line style="stroke:#181818;stroke-width:0.5;" x1="1450.5" x2="1444.5" y1="532" y2="532"/><text fill="#000000" font-family="sans-serif" font-size="14" lengthAdjust="spacing" textLength="51" x="1384.5" y="546.9951">Module</text></g><!--entity module4--><g id="elem_module4"><rect fill="#F1F1F1" height="39.2969" rx="2.5" ry="2.5" style="stroke:#181818;stroke-width:0.5;" width="81" x="1258.5" y="521"/><polygon fill="#F1F1F1" points="1322.5,526,1322.5,540,1334.5,540,1334.5,532,1328.5,526,1322.5,526" style="stroke:#181818;stroke-width:0.5;"/><line style="stroke:#181818;stroke-width:0.5;" x1="1328.5" x2="1328.5" y1="526" y2="532"/><line style="stroke:#181818;stroke-width:0.5;" x1="1334.5" x2="1328.5" y1="532" y2="532"/><text fill="#000000" font-family="sans-serif" font-size="14" lengthAdjust="spacing" textLength="51" x="1268.5" y="546.9951">Module</text></g><!--entity lb3--><g id="elem_lb3"><rect fill="#F1F1F1" height="62.5938" rx="2.5" ry="2.5" style="stroke:#181818;stroke-width:0.5;" width="102" x="817" y="228"/><rect fill="#F1F1F1" height="10" style="stroke:#181818;stroke-width:0.5;" width="15" x="899" y="233"/><rect fill="#F1F1F1" height="2" style="stroke:#181818;stroke-width:0.5;" width="4" x="897" y="235"/><rect fill="#F1F1F1" height="2" style="stroke:#181818;stroke-width:0.5;" width="4" x="897" y="239"/><text fill="#000000" font-family="sans-serif" font-size="14" lengthAdjust="spacing" textLength="34" x="832" y="260.9951">Load</text><text fill="#000000" font-family="sans-serif" font-size="14" lengthAdjust="spacing" textLength="62" x="832" y="277.292">balancer</text></g><!--entity db3--><g id="elem_db3"><path d="M806,528 C806,518 850,518 850,518 C850,518 894,518 894,528 L894,553.2969 C894,563.2969 850,563.2969 850,563.2969 C850,563.2969 806,563.2969 806,553.2969 L806,528 " fill="#FFFF00" style="stroke:#181818;stroke-width:2.0;"/><path d="M806,528 C806,538 850,538 850,538 C850,538 894,538 894,528 " fill="none" style="stroke:#181818;stroke-width:2.0;"/><text fill="#000000" font-family="sans-serif" font-size="14" lengthAdjust="spacing" textLength="68" x="816" y="554.9951">Database</text></g><!--entity module5--><g id="elem_module5"><rect fill="#F1F1F1" height="39.2969" rx="2.5" ry="2.5" style="stroke:#181818;stroke-width:0.5;" width="81" x="981.5" y="375"/><polygon fill="#F1F1F1" points="1045.5,380,1045.5,394,1057.5,394,1057.5,386,1051.5,380,1045.5,380" style="stroke:#181818;stroke-width:0.5;"/><line style="stroke:#181818;stroke-width:0.5;" x1="1051.5" x2="1051.5" y1="380" y2="386"/><line style="stroke:#181818;stroke-width:0.5;" x1="1057.5" x2="1051.5" y1="386" y2="386"/><text fill="#000000" font-family="sans-serif" font-size="14" lengthAdjust="spacing" textLength="51" x="991.5" y="400.9951">Module</text></g><!--entity module6--><g id="elem_module6"><rect fill="#F1F1F1" height="39.2969" rx="2.5" ry="2.5" style="stroke:#181818;stroke-width:0.5;" width="81" x="865.5" y="375"/><polygon fill="#F1F1F1" points="929.5,380,929.5,394,941.5,394,941.5,386,935.5,380,929.5,380" style="stroke:#181818;stroke-width:0.5;"/><line style="stroke:#181818;stroke-width:0.5;" x1="935.5" x2="935.5" y1="380" y2="386"/><line style="stroke:#181818;stroke-width:0.5;" x1="941.5" x2="935.5" y1="386" y2="386"/><text fill="#000000" font-family="sans-serif" font-size="14" lengthAdjust="spacing" textLength="51" x="875.5" y="400.9951">Module</text></g><!--entity client_requests1--><g id="elem_client_requests1"><rect fill="#4169E1" height="22.2969" rx="2.5" ry="2.5" style="stroke:#181818;stroke-width:0.5;" width="133" x="445.5" y="7"/><text fill="#FFFFFF" font-family="sans-serif" font-size="14" lengthAdjust="spacing" textLength="113" x="455.5" y="22.9951">Client Requests</text></g><!--entity client_requests2--><g id="elem_client_requests2"><rect fill="#4169E1" height="22.2969" rx="2.5" ry="2.5" style="stroke:#181818;stroke-width:0.5;" width="133" x="781.5" y="7"/><text fill="#FFFFFF" font-family="sans-serif" font-size="14" lengthAdjust="spacing" textLength="113" x="791.5" y="22.9951">Client Requests</text></g><!--entity client_requests3--><g id="elem_client_requests3"><rect fill="#4169E1" height="22.2969" rx="2.5" ry="2.5" style="stroke:#181818;stroke-width:0.5;" width="133" x="613.5" y="7"/><text fill="#FFFFFF" font-family="sans-serif" font-size="14" lengthAdjust="spacing" textLength="113" x="623.5" y="22.9951">Client Requests</text></g><!--entity cache--><g id="elem_cache"><rect fill="#F1F1F1" height="46.2969" rx="2.5" ry="2.5" style="stroke:#181818;stroke-width:0.5;" width="148" x="7" y="236.5"/><rect fill="#F1F1F1" height="10" style="stroke:#181818;stroke-width:0.5;" width="15" x="135" y="241.5"/><rect fill="#F1F1F1" height="2" style="stroke:#181818;stroke-width:0.5;" width="4" x="133" y="243.5"/><rect fill="#F1F1F1" height="2" style="stroke:#181818;stroke-width:0.5;" width="4" x="133" y="247.5"/><text fill="#000000" font-family="sans-serif" font-size="14" lengthAdjust="spacing" textLength="108" x="22" y="269.4951">External Cache</text></g><!--entity mq--><g id="elem_mq"><rect fill="#F1F1F1" height="46.2969" rx="2.5" ry="2.5" style="stroke:#181818;stroke-width:0.5;" width="193" x="556.5" y="371.5"/><rect fill="#F1F1F1" height="10" style="stroke:#181818;stroke-width:0.5;" width="15" x="729.5" y="376.5"/><rect fill="#F1F1F1" height="2" style="stroke:#181818;stroke-width:0.5;" width="4" x="727.5" y="378.5"/><rect fill="#F1F1F1" height="2" style="stroke:#181818;stroke-width:0.5;" width="4" x="727.5" y="382.5"/><text fill="#000000" font-family="sans-serif" font-size="14" lengthAdjust="spacing" textLength="153" x="571.5" y="404.4951">Message/Topic queue</text></g><!--link api_layer to cache--><g id="link_api_layer_cache"><path d="M571.6705,107.5545 C571.4552,107.5693 571.2359,107.5843 571.0128,107.5996 C569.2278,107.7223 567.1948,107.8637 564.93,108.0237 C555.8711,108.664 543.1048,109.6034 527.6728,110.8376 C496.8088,113.3059 455.2819,116.9538 411.4255,121.7478 C323.7128,131.3358 226.682,145.5085 187,164 C150.798,180.87 121.8917,209.6935 102.6621,231.9195 " fill="none" id="api_layer-to-cache" style="stroke:#181818;stroke-width:1.0;"/><polygon fill="#181818" points="98.7364,236.457,107.65,232.268,102.0079,232.6758,101.6,227.0336,98.7364,236.457" style="stroke:#181818;stroke-width:1.0;"/></g><!--link client_requests1 to api1--><g id="link_client_requests1_api1"><path d="M584.5552,26.5504 C599.0422,29.2124 605.721,31.842 611,37 C626.863,52.499 627.5981,74.8634 626.5081,89.5834 " fill="none" id="client_requests1-api1" style="stroke:#181818;stroke-width:1.0;"/><polygon fill="#181818" points="578.654,25.466,586.7829,31.0267,583.5717,26.3696,588.2287,23.1584,578.654,25.466" style="stroke:#181818;stroke-width:1.0;"/><polygon fill="#181818" points="626.065,95.567,630.7187,86.887,626.4342,90.5807,622.7405,86.2962,626.065,95.567" style="stroke:#181818;stroke-width:1.0;"/></g><!--link client_requests2 to api2--><g id="link_client_requests2_api2"><path d="M829.8194,32.8367 C806.9024,50.2777 770.2455,78.1752 749.8455,93.7012 " fill="none" id="client_requests2-api2" style="stroke:#181818;stroke-width:1.0;"/><polygon fill="#181818" points="834.594,29.203,825.0097,31.4705,830.6152,32.2311,829.8546,37.8366,834.594,29.203" style="stroke:#181818;stroke-width:1.0;"/><polygon fill="#181818" points="745.071,97.335,754.6552,95.0674,749.0497,94.3069,749.8102,88.7014,745.071,97.335" style="stroke:#181818;stroke-width:1.0;"/></g><!--link client_requests3 to api3--><g id="link_client_requests3_api3"><path d="M680,35.203 C680,52.11 680,73.673 680,89.855 " fill="none" id="client_requests3-api3" style="stroke:#181818;stroke-width:1.0;"/><polygon fill="#181818" points="680,29.203,676,38.203,680,34.203,684,38.203,680,29.203" style="stroke:#181818;stroke-width:1.0;"/><polygon fill="#181818" points="680,95.855,684,86.855,680,90.855,676,86.855,680,95.855" style="stroke:#181818;stroke-width:1.0;"/></g><!--link lb1 to rectangle1--><g id="link_lb1_rectangle1"><path d="M247.607,291.178 C247.061,293.823 246.52,296.458 246,299 C243.922,309.1653 241.7361,319.9496 239.6164,330.4568 C239.5501,330.7852 239.4839,331.1133 239.4178,331.4411 C239.3848,331.605 240.5377,325.8872 240.5047,326.0509 " fill="none" id="lb1-to-rectangle1" style="stroke:#181818;stroke-width:1.0;"/><polygon fill="#181818" points="239.3187,331.9325,245.0188,323.9008,240.3071,327.0312,237.1767,322.3194,239.3187,331.9325" style="stroke:#181818;stroke-width:1.0;"/></g><!--link rectangle1 to db1--><g id="link_rectangle1_db1"><path d="M233.8071,444.5104 C237.3148,469.7659 240.4476,492.3225 243.1796,511.994 " fill="none" id="rectangle1-db1" style="stroke:#181818;stroke-width:1.0;"/><polygon fill="#181818" points="232.9816,438.5675,230.2578,448.0322,233.6695,443.5199,238.1817,446.9316,232.9816,438.5675" style="stroke:#181818;stroke-width:1.0;"/><polygon fill="#181818" points="244.005,517.937,246.7289,508.4723,243.3172,512.9845,238.805,509.5728,244.005,517.937" style="stroke:#181818;stroke-width:1.0;"/></g><!--link api1 to srvc_1--><g id="link_api1_srvc_1"><path d="M622.5278,122.0127 C620.6908,132.1957 617.925,143.049 611,156 C597.352,181.523 576.5138,206.369 558.6529,225.2058 C549.7224,234.6241 541.5363,242.5402 535.3655,248.2874 C534.5942,249.0058 533.8543,249.6903 533.1484,250.3396 C532.7955,250.6643 536.8791,246.9314 536.5434,247.2383 " fill="none" id="api1-srvc_1" style="stroke:#181818;stroke-width:1.0;"/><polygon fill="#181818" points="623.593,116.108,618.0587,124.2549,622.7053,121.0286,625.9317,125.6752,623.593,116.108" style="stroke:#181818;stroke-width:1.0;"/><polygon fill="#181818" points="532.1154,251.2871,541.4566,248.1659,535.8054,247.9131,536.0582,242.2619,532.1154,251.2871" style="stroke:#181818;stroke-width:1.0;"/></g><!--link lb2 to rectangle2--><g id="link_lb2_rectangle2"><path d="M1251.96,426.223 C1248.72,437.455 1245.11,450.278 1242,462 C1240.8988,466.1509 1239.7856,470.4329 1238.6796,474.7534 C1238.4032,475.8336 1239.6047,471.1009 1239.3294,472.1844 " fill="none" id="lb2-to-rectangle2" style="stroke:#181818;stroke-width:1.0;"/><polygon fill="#181818" points="1237.8518,477.9996,1243.945,470.2618,1239.0831,473.1536,1236.1914,468.2917,1237.8518,477.9996" style="stroke:#181818;stroke-width:1.0;"/></g><!--link rectangle2 to db2--><g id="link_rectangle2_db2"><path d="M1232.4453,590.1396 C1233.2956,594.5184 1233.0979,593.5002 1233.9548,597.9131 C1235.6687,606.739 1236.201,609.4808 1237.636,616.8687 " fill="none" id="rectangle2-db2" style="stroke:#181818;stroke-width:1.0;"/><polygon fill="#181818" points="1231.3015,584.2496,1229.0905,593.8471,1232.2547,589.1579,1236.9438,592.322,1231.3015,584.2496" style="stroke:#181818;stroke-width:1.0;"/><polygon fill="#181818" points="1238.78,622.7586,1240.9906,613.161,1237.8266,617.8503,1233.1373,614.6864,1238.78,622.7586" style="stroke:#181818;stroke-width:1.0;"/></g><!--link api2 to srvc_2--><g id="link_api2_srvc_2"><path d="M751.0108,107.0755 C805.7008,107.4625 1061.98,111.999 1119,164 C1157.18,198.822 1171.3425,254.9622 1175.8813,303 C1176.1649,306.0024 1176.411,308.9731 1176.623,311.9049 C1176.676,312.6379 1176.3256,307.3819 1176.3744,308.1099 " fill="none" id="api2-srvc_2" style="stroke:#181818;stroke-width:1.0;"/><polygon fill="#181818" points="745.011,107.033,753.9825,111.0966,750.0109,107.0684,754.0391,103.0968,745.011,107.033" style="stroke:#181818;stroke-width:1.0;"/><polygon fill="#181818" points="1176.7757,314.0965,1180.1648,304.8491,1176.4413,309.1077,1172.1827,305.3841,1176.7757,314.0965" style="stroke:#181818;stroke-width:1.0;"/></g><!--link lb3 to rectangle3--><g id="link_lb3_rectangle3"><path d="M851.939,291.303 C850.863,293.873 849.866,296.46 849,299 C845.6533,308.821 842.8131,319.4278 840.4305,329.8638 C840.2816,330.516 841.4425,325.3119 841.2972,325.9626 " fill="none" id="lb3-to-rectangle3" style="stroke:#181818;stroke-width:1.0;"/><polygon fill="#181818" points="839.9891,331.8183,845.855,323.9068,841.0792,326.9385,838.0474,322.1627,839.9891,331.8183" style="stroke:#181818;stroke-width:1.0;"/></g><!--link rectangle3 to db3--><g id="link_rectangle3_db3"><path d="M836.8071,444.5104 C840.3148,469.7659 843.4476,492.3225 846.1796,511.994 " fill="none" id="rectangle3-db3" style="stroke:#181818;stroke-width:1.0;"/><polygon fill="#181818" points="835.9816,438.5675,833.2578,448.0322,836.6695,443.5199,841.1817,446.9316,835.9816,438.5675" style="stroke:#181818;stroke-width:1.0;"/><polygon fill="#181818" points="847.005,517.937,849.7289,508.4723,846.3172,512.9845,841.805,509.5728,847.005,517.937" style="stroke:#181818;stroke-width:1.0;"/></g><!--link api3 to srvc_3--><g id="link_api3_srvc_3"><path d="M687.3731,121.5728 C692.4991,131.5768 698.436,142.569 707,156 C721.701,179.054 739.7568,203.823 754.4683,223.2366 C761.824,232.9434 768.3437,241.3114 773.1899,247.4567 C773.3414,247.6488 773.4912,247.8386 773.6393,248.0263 C773.7134,248.1202 770.0682,243.5049 770.1415,243.5976 " fill="none" id="api3-srvc_3" style="stroke:#181818;stroke-width:1.0;"/><polygon fill="#181818" points="684.637,116.233,685.1813,126.0668,686.9171,120.6829,692.301,122.4187,684.637,116.233" style="stroke:#181818;stroke-width:1.0;"/><polygon fill="#181818" points="773.8603,248.3062,771.4211,238.7642,770.7613,244.3824,765.143,243.7226,773.8603,248.3062" style="stroke:#181818;stroke-width:1.0;"/></g><!--link srvc_1 to mq--><g id="link_srvc_1_mq"><path d="M532.2721,269.0286 C532.3674,269.1269 532.4635,269.2259 532.5603,269.3257 C532.7538,269.5253 532.9502,269.7278 533.1494,269.9331 C533.5478,270.3438 533.9573,270.766 534.3776,271.1994 C535.2182,272.066 536.1019,272.9772 537.0258,273.9297 C544.4167,281.5498 554.3759,291.8178 565.3683,303.151 C587.353,325.8175 609.2932,348.4381 627.2627,366.9651 " fill="none" id="srvc_1-to-mq" style="stroke:#181818;stroke-width:1.0;"/><polygon fill="#181818" points="631.44,371.272,628.0453,362.0267,627.9589,367.6829,622.3027,367.5965,631.44,371.272" style="stroke:#181818;stroke-width:1.0;"/></g><!--reverse link srvc_3 to mq--><g id="link_srvc_3_mq"><path d="M769.5506,273.3355 C769.357,273.535 773.0498,269.7278 772.8506,269.9331 C772.4522,270.3438 772.0427,270.766 771.6224,271.1994 C770.7818,272.066 769.8981,272.9772 768.9742,273.9297 C761.5833,281.5498 751.6241,291.8178 740.6318,303.151 C718.647,325.8175 692.5295,352.745 674.56,371.272 " fill="none" id="srvc_3-backto-mq" style="stroke:#181818;stroke-width:1.0;"/><polygon fill="#181818" points="773.7279,269.0286,764.5906,272.704,770.2468,272.6177,770.3331,278.2739,773.7279,269.0286" style="stroke:#181818;stroke-width:1.0;"/></g><!--link srvc_3 to srvc_2--><g id="link_srvc_3_srvc_2"><path d="M1131.3474,336.8023 C1132.6528,338.0967 1131.6024,337.1578 1132.8631,338.4629 C1137.9055,343.683 1142.5841,348.9606 1146.8488,354.0746 C1151.1134,359.1887 1154.9643,364.1391 1158.3515,368.705 C1160.045,370.988 1161.6227,373.1748 1163.0782,375.2379 C1163.806,376.2694 1164.5032,377.27 1165.1691,378.2362 C1165.502,378.7193 1165.8271,379.1938 1166.1443,379.6592 C1166.3029,379.892 1166.4595,380.1224 1166.6142,380.3506 C1166.6915,380.4647 1166.7683,380.5782 1166.8446,380.6911 C1166.8828,380.7476 1163.5644,375.8305 1163.6023,375.8867 " fill="none" id="srvc_3-srvc_2" style="stroke:#181818;stroke-width:1.0;"/><polygon fill="#181818" points="1127.0394,332.6261,1130.7173,341.7625,1130.6294,336.1063,1136.2856,336.0184,1127.0394,332.6261" style="stroke:#181818;stroke-width:1.0;"/><polygon fill="#181818" points="1166.9587,380.8601,1165.2396,371.1624,1164.1617,376.7156,1158.6085,375.6376,1166.9587,380.8601" style="stroke:#181818;stroke-width:1.0;"/></g><!--SRC=[fPHFRniX4CNFxAT0pjcj34qFJLIfIdk8b4XLscCbQnQcDYeBDilQiQfyzyxY_UVQpQxK6piF7cz-m2e8ci_kh44N-HDkAonZEUDGSfLgoz3K5lmg-0FOt5Pu4_4vVjYlJSICgQaEuhyTv3ySoC8N6-_gzRDFN- -vXGE6v00RiqnV_7V66ApI5DvAr9GrgtMi3I_8bBX0RQe2jXKK48oxD8jIMTYXqnWozd8QvijpnE30yZjGQppsL8yorWURppysHLhwD_JRMgsJdccYqyIP9ZjDagdp6ldi6uQTKSWNAKKPTcevR3_n6IH_yA1_k1miEDMmj3cbO05L1BUolMKIk_8YEJ48qVm4HKwFNbVsEAb8myM8JlqGHyPelmIdjwQYXWWvbBJxvsQKLcgQUtL0Q_t-nj8vlSczrSSxabjGluR16wgwRkSbdKHJEK8v8oPwOXTkn2HmOW8uCGfEZkZlEd3Y59nu3PoO34wqu4GBJWp0YJDmiWStU2IJWCa9mEGeiEiH_Nq7J9u2awy1avE1oHQOR8790J1wcoS_YqSiI_gvlFtkDqPnUibLatMRiUQzphNVErfVbuejdrURtemrD_HsMFq3]--></g></svg>