<svg width="582" height="465" xmlns="http://www.w3.org/2000/svg" xmlns:xlink="http://www.w3.org/1999/xlink" xml:space="preserve" overflow="hidden"><g><path d="M125.917 221.285 212.865 221.285C213.334 221.428 213.701 221.795 213.844 222.264L216.585 230.018 569.663 230.018C570.203 230.018 570.642 230.456 570.642 230.997L570.642 371.485C570.642 372.026 570.203 372.464 569.663 372.464L125.917 372.464C125.376 372.464 124.938 372.026 124.938 371.485L124.938 222.264C124.938 221.724 125.376 221.285 125.917 221.285" stroke="#000000" stroke-width="0.587483" fill="none" transform="scale(1 1.00023)"/><path d="M124.938 230.018 216.585 230.018" stroke="#000000" stroke-width="0.587483" fill="none" transform="scale(1 1.00023)"/><text font-family="Arial,Arial_MSFontService,sans-serif" font-weight="700" font-size="14" transform="matrix(0.391655 0 0 0.391744 126.505 227)">Workflow Service Boundary</text><path d="M367.177 70.1063 462.349 70.1063C462.819 70.2489 463.187 70.6159 463.328 71.0855L466.07 78.8391 578.279 78.8391C578.82 78.8391 579.258 79.2773 579.258 79.8182L579.258 210.906C579.258 211.447 578.82 211.886 578.279 211.886L367.177 211.886C366.636 211.886 366.198 211.447 366.198 210.906L366.198 71.0855C366.198 70.5446 366.636 70.1063 367.177 70.1063" stroke="#000000" stroke-width="0.587483" fill="none" transform="scale(1 1.00023)"/><path d="M366.198 78.8391 466.07 78.8391" stroke="#000000" stroke-width="0.587483" fill="none" transform="scale(1 1.00023)"/><text font-family="Arial,Arial_MSFontService,sans-serif" font-weight="700" font-size="14" transform="matrix(0.391655 0 0 0.391744 367.764 76)">Recognition Service Boundary</text><path d="M225.985 2.34993 312.933 2.34993C313.402 2.49232 313.769 2.85966 313.912 3.32907L316.653 11.0826 445.116 11.0826C445.657 11.0826 446.096 11.521 446.096 12.0618L446.096 59.7275C446.096 60.2683 445.657 60.7066 445.116 60.7066L225.985 60.7066C225.444 60.7066 225.006 60.2683 225.006 59.7275L225.006 3.32907C225.006 2.78831 225.444 2.34993 225.985 2.34993" stroke="#000000" stroke-width="0.587483" fill="none" transform="scale(1 1.00023)"/><path d="M225.006 11.0826 316.653 11.0826" stroke="#000000" stroke-width="0.587483" fill="none" transform="scale(1 1.00023)"/><text font-family="Arial,Arial_MSFontService,sans-serif" font-weight="700" font-size="14" transform="matrix(0.391655 0 0 0.391744 226.573 8)">Analytics Service Boundary</text><path d="M125.526 381.864 224.614 381.864C225.084 382.007 225.451 382.374 225.594 382.843L228.335 390.597 293.937 390.597C294.478 390.597 294.917 391.035 294.917 391.576L294.917 461.174C294.917 461.715 294.478 462.153 293.937 462.153L125.526 462.153C124.985 462.153 124.546 461.715 124.546 461.174L124.546 382.843C124.546 382.302 124.985 381.864 125.526 381.864" stroke="#000000" stroke-width="0.587483" fill="none" transform="scale(1 1.00023)"/><path d="M124.546 390.597 228.335 390.597" stroke="#000000" stroke-width="0.587483" fill="none" transform="scale(1 1.00023)"/><text font-family="Arial,Arial_MSFontService,sans-serif" font-weight="700" font-size="14" transform="matrix(0.391655 0 0 0.391744 126.113 388)">Notifications Service Boundary</text><path d="M3.32907 359.148 74.6104 359.148C75.08 359.291 75.4469 359.658 75.5895 360.127L78.3311 367.881 78.5269 367.881C79.0678 367.881 79.5061 368.319 79.5061 368.86L79.5061 419.659C79.5061 420.199 79.0678 420.638 78.5269 420.638L3.32907 420.638C2.78831 420.638 2.34993 420.199 2.34993 419.659L2.34993 360.127C2.34993 359.586 2.78831 359.148 3.32907 359.148" stroke="#000000" stroke-width="0.587483" fill="none" transform="scale(1 1.00023)"/><path d="M2.34993 367.881 78.3311 367.881" stroke="#000000" stroke-width="0.587483" fill="none" transform="scale(1 1.00023)"/><text font-family="Arial,Arial_MSFontService,sans-serif" font-weight="700" font-size="14" transform="matrix(0.391655 0 0 0.391744 3.91655 365)">User Service Boundary</text><path d="M175.266 294.721C175.807 294.721 176.245 295.159 176.245 295.7L176.245 341.309C176.245 341.85 175.807 342.288 175.266 342.288L132.184 342.288C131.643 342.288 131.205 341.85 131.205 341.309L131.205 295.7C131.205 295.159 131.643 294.721 132.184 294.721Z" stroke="#181818" stroke-width="0.195828" fill="#F1F1F1" transform="scale(1 1.00023)"/><path d="M141.388 302.606C141.388 304.985 139.459 306.914 137.079 306.914 134.7 306.914 132.771 304.985 132.771 302.606 132.771 300.227 134.7 298.298 137.079 298.298 139.459 298.298 141.388 300.227 141.388 302.606Z" stroke="#181818" stroke-width="0.391655" fill="#ADD1B2" transform="scale(1 1.00023)"/><path d="M137.997 300.911C137.63 300.739 137.397 300.684 137.055 300.684 136.027 300.684 135.243 301.498 135.243 302.563L135.243 303.003C135.243 304.014 136.07 304.754 137.202 304.754 137.679 304.754 138.132 304.637 138.426 304.423 138.652 304.264 138.781 304.087 138.781 303.934 138.781 303.756 138.628 303.603 138.444 303.603 138.359 303.603 138.279 303.634 138.205 303.707 138.028 303.897 138.028 303.897 137.954 303.934 137.789 304.038 137.52 304.087 137.22 304.087 136.418 304.087 135.911 303.658 135.911 302.991L135.911 302.563C135.911 301.865 136.4 301.351 137.079 301.351 137.306 301.351 137.545 301.413 137.728 301.51 137.918 301.621 137.985 301.706 138.022 301.865 138.046 302.024 138.059 302.073 138.114 302.122 138.169 302.177 138.261 302.22 138.346 302.22 138.45 302.22 138.554 302.165 138.622 302.08 138.664 302.018 138.677 301.945 138.677 301.78L138.677 301.223C138.677 301.051 138.67 301.002 138.634 300.941 138.572 300.837 138.462 300.782 138.346 300.782 138.23 300.782 138.15 300.819 138.065 300.941L137.997 300.911Z" transform="scale(1 1.00023)"/><text font-family="Arial,Arial_MSFontService,sans-serif" font-style="italic" font-weight="400" font-size="12" transform="matrix(0.391655 0 0 0.391744 149.025 301)">«Entity»</text><text font-family="Arial,Arial_MSFontService,sans-serif" font-weight="400" font-size="14" transform="matrix(0.391655 0 0 0.391744 142.563 307)">Application</text><path d="M131.596 310.491 175.853 310.491" stroke="#181818" stroke-width="0.195828" fill="none" transform="scale(1 1.00023)"/><text font-family="Arial,Arial_MSFontService,sans-serif" font-weight="400" font-size="14" transform="matrix(0.391655 0 0 0.391744 133.555 317)">Id</text><text font-family="Arial,Arial_MSFontService,sans-serif" font-weight="400" font-size="14" transform="matrix(0.391655 0 0 0.391744 133.555 324)">Name</text><text font-family="Arial,Arial_MSFontService,sans-serif" font-weight="400" font-size="14" transform="matrix(0.391655 0 0 0.391744 133.555 330)">DateAdded</text><text font-family="Arial,Arial_MSFontService,sans-serif" font-weight="400" font-size="14" transform="matrix(0.391655 0 0 0.391744 133.555 336)">DateUpdated</text><path d="M131.596 339.155 175.853 339.155" stroke="#181818" stroke-width="0.195828" fill="none" transform="scale(1 1.00023)"/><path d="M278.859 293.546C279.399 293.546 279.838 293.984 279.838 294.525L279.838 340.134C279.838 340.675 279.399 341.113 278.859 341.113L238.518 341.113C237.977 341.113 237.539 340.675 237.539 340.134L237.539 294.525C237.539 293.984 237.977 293.546 238.518 293.546Z" stroke="#181818" stroke-width="0.195828" fill="#F1F1F1" transform="scale(1 1.00023)"/><path d="M249.132 301.431C249.132 303.81 247.203 305.739 244.824 305.739 242.444 305.739 240.516 303.81 240.516 301.431 240.516 299.052 242.444 297.123 244.824 297.123 247.203 297.123 249.132 299.052 249.132 301.431Z" stroke="#181818" stroke-width="0.391655" fill="#ADD1B2" transform="scale(1 1.00023)"/><path d="M245.742 299.736C245.374 299.564 245.142 299.509 244.799 299.509 243.771 299.509 242.988 300.323 242.988 301.388L242.988 301.828C242.988 302.839 243.814 303.579 244.946 303.579 245.423 303.579 245.876 303.462 246.17 303.248 246.397 303.089 246.525 302.912 246.525 302.759 246.525 302.581 246.372 302.428 246.188 302.428 246.103 302.428 246.023 302.459 245.95 302.532 245.772 302.722 245.772 302.722 245.699 302.759 245.533 302.863 245.264 302.912 244.964 302.912 244.163 302.912 243.655 302.483 243.655 301.816L243.655 301.388C243.655 300.69 244.145 300.176 244.824 300.176 245.05 300.176 245.289 300.238 245.472 300.335 245.662 300.446 245.729 300.531 245.766 300.69 245.791 300.849 245.803 300.898 245.858 300.947 245.913 301.002 246.005 301.045 246.09 301.045 246.195 301.045 246.299 300.99 246.366 300.905 246.409 300.843 246.421 300.77 246.421 300.605L246.421 300.048C246.421 299.876 246.415 299.828 246.378 299.766 246.317 299.662 246.207 299.607 246.09 299.607 245.974 299.607 245.895 299.644 245.809 299.766L245.742 299.736Z" transform="scale(1 1.00023)"/><text font-family="Arial,Arial_MSFontService,sans-serif" font-style="italic" font-weight="400" font-size="12" transform="matrix(0.391655 0 0 0.391744 254.145 300)">«Entity»</text><text font-family="Arial,Arial_MSFontService,sans-serif" font-weight="400" font-size="14" transform="matrix(0.391655 0 0 0.391744 250.62 306)">Workflow</text><path d="M237.931 309.316 279.446 309.316" stroke="#181818" stroke-width="0.195828" fill="none" transform="scale(1 1.00023)"/><text font-family="Arial,Arial_MSFontService,sans-serif" font-weight="400" font-size="14" transform="matrix(0.391655 0 0 0.391744 239.889 316)">Id</text><text font-family="Arial,Arial_MSFontService,sans-serif" font-weight="400" font-size="14" transform="matrix(0.391655 0 0 0.391744 239.889 322)">Name</text><text font-family="Arial,Arial_MSFontService,sans-serif" font-weight="400" font-size="14" transform="matrix(0.391655 0 0 0.391744 239.889 329)">DateAdded</text><text font-family="Arial,Arial_MSFontService,sans-serif" font-weight="400" font-size="14" transform="matrix(0.391655 0 0 0.391744 239.889 335)">DateUpdated</text><path d="M237.931 337.98 279.446 337.98" stroke="#181818" stroke-width="0.195828" fill="none" transform="scale(1 1.00023)"/><path d="M437.479 315.478C438.02 315.478 438.458 315.917 438.458 316.458L438.458 365.212C438.458 365.753 438.02 366.192 437.479 366.192L365.806 366.192C365.265 366.192 364.827 365.753 364.827 365.212L364.827 316.458C364.827 315.917 365.265 315.478 365.806 315.478Z" stroke="#181818" stroke-width="0.195828" fill="#F1F1F1" transform="scale(1 1.00023)"/><path d="M381.002 321.745C381.002 324.124 379.074 326.053 376.694 326.053 374.315 326.053 372.386 324.124 372.386 321.745 372.386 319.366 374.315 317.437 376.694 317.437 379.074 317.437 381.002 319.366 381.002 321.745Z" stroke="#181818" stroke-width="0.391655" fill="#ADD1B2" transform="scale(1 1.00023)"/><path d="M377.612 320.05C377.245 319.878 377.012 319.823 376.67 319.823 375.641 319.823 374.858 320.637 374.858 321.702L374.858 322.143C374.858 323.153 375.685 323.893 376.816 323.893 377.294 323.893 377.747 323.777 378.04 323.563 378.267 323.403 378.396 323.226 378.396 323.073 378.396 322.896 378.242 322.742 378.059 322.742 377.973 322.742 377.893 322.773 377.82 322.846 377.643 323.036 377.643 323.036 377.569 323.073 377.404 323.177 377.135 323.226 376.835 323.226 376.033 323.226 375.526 322.798 375.526 322.13L375.526 321.702C375.526 321.004 376.015 320.49 376.694 320.49 376.921 320.49 377.159 320.552 377.343 320.649 377.533 320.76 377.6 320.845 377.637 321.004 377.661 321.164 377.673 321.213 377.729 321.262 377.783 321.316 377.875 321.36 377.961 321.36 378.065 321.36 378.169 321.304 378.236 321.219 378.279 321.157 378.291 321.084 378.291 320.919L378.291 320.362C378.291 320.19 378.285 320.142 378.249 320.08 378.187 319.976 378.077 319.921 377.961 319.921 377.845 319.921 377.765 319.958 377.68 320.08L377.612 320.05Z" transform="scale(1 1.00023)"/><text font-family="Arial,Arial_MSFontService,sans-serif" font-weight="400" font-size="14" transform="matrix(0.391655 0 0 0.391744 383.509 324)">WorkflowSetting</text><path d="M365.219 328.011 438.067 328.011" stroke="#181818" stroke-width="0.195828" fill="none" transform="scale(1 1.00023)"/><text font-family="Arial,Arial_MSFontService,sans-serif" font-weight="400" font-size="14" transform="matrix(0.391655 0 0 0.391744 367.177 335)">Id</text><text font-family="Arial,Arial_MSFontService,sans-serif" font-weight="400" font-size="14" transform="matrix(0.391655 0 0 0.391744 367.177 341)">SkipImageEnhancement</text><text font-family="Arial,Arial_MSFontService,sans-serif" font-weight="400" font-size="14" transform="matrix(0.391655 0 0 0.391744 367.177 348)">ExpectDifferentImages</text><text font-family="Arial,Arial_MSFontService,sans-serif" font-weight="400" font-size="14" transform="matrix(0.391655 0 0 0.391744 367.177 354)">DateAdded</text><text font-family="Arial,Arial_MSFontService,sans-serif" font-weight="400" font-size="14" transform="matrix(0.391655 0 0 0.391744 367.177 360)">DateUpdated</text><path d="M365.219 363.058 438.067 363.058" stroke="#181818" stroke-width="0.195828" fill="none" transform="scale(1 1.00023)"/><path d="M435.325 234.993C435.866 234.993 436.304 235.432 436.304 235.972L436.304 300.73C436.304 301.271 435.866 301.709 435.325 301.709L367.96 301.709C367.42 301.709 366.981 301.271 366.981 300.73L366.981 235.972C366.981 235.432 367.42 234.993 367.96 234.993Z" stroke="#181818" stroke-width="0.195828" fill="#F1F1F1" transform="scale(1 1.00023)"/><path d="M377.164 242.878C377.164 245.258 375.235 247.187 372.856 247.187 370.477 247.187 368.548 245.258 368.548 242.878 368.548 240.499 370.477 238.57 372.856 238.57 375.235 238.57 377.164 240.499 377.164 242.878Z" stroke="#181818" stroke-width="0.391655" fill="#ADD1B2" transform="scale(1 1.00023)"/><path d="M373.774 241.183C373.407 241.012 373.174 240.957 372.832 240.957 371.803 240.957 371.02 241.771 371.02 242.835L371.02 243.276C371.02 244.286 371.846 245.026 372.978 245.026 373.456 245.026 373.909 244.91 374.202 244.696 374.429 244.537 374.557 244.359 374.557 244.206 374.557 244.029 374.404 243.876 374.221 243.876 374.135 243.876 374.055 243.907 373.982 243.98 373.805 244.17 373.805 244.17 373.731 244.206 373.566 244.31 373.297 244.359 372.997 244.359 372.195 244.359 371.687 243.931 371.687 243.264L371.687 242.835C371.687 242.138 372.177 241.624 372.856 241.624 373.082 241.624 373.321 241.685 373.505 241.783 373.695 241.893 373.762 241.979 373.798 242.138 373.823 242.297 373.835 242.346 373.89 242.395 373.945 242.45 374.037 242.493 374.123 242.493 374.227 242.493 374.331 242.438 374.398 242.352 374.441 242.291 374.453 242.217 374.453 242.052L374.453 241.496C374.453 241.324 374.447 241.275 374.41 241.214 374.349 241.11 374.239 241.055 374.123 241.055 374.007 241.055 373.927 241.091 373.841 241.214L373.774 241.183Z" transform="scale(1 1.00023)"/><text font-family="Arial,Arial_MSFontService,sans-serif" font-style="italic" font-weight="400" font-size="12" transform="matrix(0.391655 0 0 0.391744 396.943 241)">«Entity»</text><text font-family="Arial,Arial_MSFontService,sans-serif" font-weight="400" font-size="14" transform="matrix(0.391655 0 0 0.391744 378.339 248)">DocumentTemplate</text><path d="M367.373 250.764 435.913 250.764" stroke="#181818" stroke-width="0.195828" fill="none" transform="scale(1 1.00023)"/><text font-family="Arial,Arial_MSFontService,sans-serif" font-weight="400" font-size="14" transform="matrix(0.391655 0 0 0.391744 369.331 257)">Id</text><text font-family="Arial,Arial_MSFontService,sans-serif" font-weight="400" font-size="14" transform="matrix(0.391655 0 0 0.391744 369.331 264)">Name</text><text font-family="Arial,Arial_MSFontService,sans-serif" font-weight="400" font-size="14" transform="matrix(0.391655 0 0 0.391744 369.331 270)">Image</text><text font-family="Arial,Arial_MSFontService,sans-serif" font-weight="400" font-size="14" transform="matrix(0.391655 0 0 0.391744 369.331 277)">Width</text><text font-family="Arial,Arial_MSFontService,sans-serif" font-weight="400" font-size="14" transform="matrix(0.391655 0 0 0.391744 369.331 283)">Height</text><text font-family="Arial,Arial_MSFontService,sans-serif" font-weight="400" font-size="14" transform="matrix(0.391655 0 0 0.391744 369.331 289)">DateAdded</text><text font-family="Arial,Arial_MSFontService,sans-serif" font-weight="400" font-size="14" transform="matrix(0.391655 0 0 0.391744 369.331 296)">DateUpdated</text><path d="M367.373 298.576 435.913 298.576" stroke="#181818" stroke-width="0.195828" fill="none" transform="scale(1 1.00023)"/><path d="M563.396 235.189C563.937 235.189 564.375 235.627 564.375 236.168L564.375 313.692C564.375 314.232 563.937 314.671 563.396 314.671L512.089 314.671C511.549 314.671 511.11 314.232 511.11 313.692L511.11 236.168C511.11 235.627 511.549 235.189 512.089 235.189Z" stroke="#181818" stroke-width="0.195828" fill="#F1F1F1" transform="scale(1 1.00023)"/><path d="M521.293 243.074C521.293 245.454 519.365 247.383 516.985 247.383 514.606 247.383 512.677 245.454 512.677 243.074 512.677 240.695 514.606 238.766 516.985 238.766 519.365 238.766 521.293 240.695 521.293 243.074Z" stroke="#181818" stroke-width="0.391655" fill="#ADD1B2" transform="scale(1 1.00023)"/><path d="M517.902 241.379C517.537 241.208 517.302 241.153 516.962 241.153 515.932 241.153 515.148 241.967 515.148 243.031L515.148 243.472C515.148 244.482 515.975 245.222 517.107 245.222 517.584 245.222 518.039 245.106 518.332 244.892 518.56 244.733 518.685 244.555 518.685 244.402 518.685 244.225 518.532 244.072 518.348 244.072 518.266 244.072 518.184 244.102 518.113 244.176 517.933 244.366 517.933 244.366 517.859 244.402 517.694 244.506 517.424 244.555 517.126 244.555 516.323 244.555 515.818 244.127 515.818 243.46L515.818 243.031C515.818 242.334 516.308 241.82 516.985 241.82 517.212 241.82 517.451 241.881 517.635 241.979 517.823 242.089 517.89 242.175 517.929 242.334 517.953 242.493 517.964 242.542 518.019 242.591 518.074 242.646 518.168 242.689 518.25 242.689 518.356 242.689 518.462 242.634 518.528 242.548 518.571 242.487 518.583 242.413 518.583 242.248L518.583 241.691C518.583 241.52 518.575 241.471 518.54 241.41 518.477 241.306 518.368 241.251 518.25 241.251 518.137 241.251 518.054 241.287 517.972 241.41L517.902 241.379Z" transform="scale(1 1.00023)"/><text font-family="Arial,Arial_MSFontService,sans-serif" font-style="italic" font-weight="400" font-size="12" transform="matrix(0.391655 0 0 0.391744 533.043 242)">«Entity»</text><text font-family="Arial,Arial_MSFontService,sans-serif" font-weight="400" font-size="14" transform="matrix(0.391655 0 0 0.391744 522.468 248)">TemplateField</text><path d="M511.502 250.959 563.984 250.959" stroke="#181818" stroke-width="0.195828" fill="none" transform="scale(1 1.00023)"/><text font-family="Arial,Arial_MSFontService,sans-serif" font-weight="400" font-size="14" transform="matrix(0.391655 0 0 0.391744 513.46 258)">Id</text><text font-family="Arial,Arial_MSFontService,sans-serif" font-weight="400" font-size="14" transform="matrix(0.391655 0 0 0.391744 513.46 264)">Name</text><text font-family="Arial,Arial_MSFontService,sans-serif" font-weight="400" font-size="14" transform="matrix(0.391655 0 0 0.391744 513.46 270)">Width</text><text font-family="Arial,Arial_MSFontService,sans-serif" font-weight="400" font-size="14" transform="matrix(0.391655 0 0 0.391744 513.46 277)">Height</text><text font-family="Arial,Arial_MSFontService,sans-serif" font-weight="400" font-size="14" transform="matrix(0.391655 0 0 0.391744 513.46 283)">XPosition</text><text font-family="Arial,Arial_MSFontService,sans-serif" font-weight="400" font-size="14" transform="matrix(0.391655 0 0 0.391744 513.46 290)">YPosition</text><text font-family="Arial,Arial_MSFontService,sans-serif" font-weight="400" font-size="14" transform="matrix(0.391655 0 0 0.391744 513.46 296)">ExpectedValue</text><text font-family="Arial,Arial_MSFontService,sans-serif" font-weight="400" font-size="14" transform="matrix(0.391655 0 0 0.391744 513.46 302)">DateAdded</text><text font-family="Arial,Arial_MSFontService,sans-serif" font-weight="400" font-size="14" transform="matrix(0.391655 0 0 0.391744 513.46 309)">DateUpdated</text><path d="M511.502 311.538 563.984 311.538" stroke="#181818" stroke-width="0.195828" fill="none" transform="scale(1 1.00023)"/><path d="M429.842 119.847C430.383 119.847 430.821 120.285 430.821 120.826L430.821 179.201C430.821 179.742 430.383 180.18 429.842 180.18L373.443 180.18C372.903 180.18 372.464 179.742 372.464 179.201L372.464 120.826C372.464 120.285 372.903 119.847 373.443 119.847Z" stroke="#181818" stroke-width="0.195828" fill="#F1F1F1" transform="scale(1 1.00023)"/><path d="M382.647 127.732C382.647 130.111 380.719 132.04 378.339 132.04 375.96 132.04 374.031 130.111 374.031 127.732 374.031 125.352 375.96 123.424 378.339 123.424 380.719 123.424 382.647 125.352 382.647 127.732Z" stroke="#181818" stroke-width="0.391655" fill="#ADD1B2" transform="scale(1 1.00023)"/><path d="M379.257 126.037C378.89 125.865 378.657 125.81 378.315 125.81 377.286 125.81 376.503 126.624 376.503 127.689L376.503 128.129C376.503 129.139 377.329 129.88 378.461 129.88 378.939 129.88 379.392 129.763 379.686 129.549 379.912 129.39 380.04 129.213 380.04 129.059 380.04 128.882 379.887 128.729 379.704 128.729 379.618 128.729 379.538 128.76 379.465 128.833 379.288 129.023 379.288 129.023 379.214 129.059 379.049 129.164 378.78 129.213 378.48 129.213 377.678 129.213 377.17 128.784 377.17 128.117L377.17 127.689C377.17 126.991 377.66 126.477 378.339 126.477 378.566 126.477 378.804 126.538 378.988 126.636 379.178 126.746 379.245 126.832 379.281 126.991 379.306 127.15 379.318 127.199 379.374 127.248 379.428 127.303 379.52 127.346 379.606 127.346 379.71 127.346 379.814 127.291 379.882 127.205 379.924 127.144 379.936 127.071 379.936 126.905L379.936 126.349C379.936 126.177 379.93 126.128 379.894 126.067 379.832 125.963 379.722 125.908 379.606 125.908 379.49 125.908 379.41 125.945 379.325 126.067L379.257 126.037Z" transform="scale(1 1.00023)"/><text font-family="Arial,Arial_MSFontService,sans-serif" font-style="italic" font-weight="400" font-size="12" transform="matrix(0.391655 0 0 0.391744 396.943 126)">«Entity»</text><text font-family="Arial,Arial_MSFontService,sans-serif" font-weight="400" font-size="14" transform="matrix(0.391655 0 0 0.391744 383.822 132)">DocumentBatch</text><path d="M372.856 135.617 430.429 135.617" stroke="#181818" stroke-width="0.195828" fill="none" transform="scale(1 1.00023)"/><text font-family="Arial,Arial_MSFontService,sans-serif" font-weight="400" font-size="14" transform="matrix(0.391655 0 0 0.391744 374.814 142)">Id</text><text font-family="Arial,Arial_MSFontService,sans-serif" font-weight="400" font-size="14" transform="matrix(0.391655 0 0 0.391744 374.814 149)">Name</text><text font-family="Arial,Arial_MSFontService,sans-serif" font-weight="400" font-size="14" transform="matrix(0.391655 0 0 0.391744 374.814 155)">StartDate</text><text font-family="Arial,Arial_MSFontService,sans-serif" font-weight="400" font-size="14" transform="matrix(0.391655 0 0 0.391744 374.814 161)">CompletedDate</text><text font-family="Arial,Arial_MSFontService,sans-serif" font-weight="400" font-size="14" transform="matrix(0.391655 0 0 0.391744 374.814 168)">DateAdded</text><text font-family="Arial,Arial_MSFontService,sans-serif" font-weight="400" font-size="14" transform="matrix(0.391655 0 0 0.391744 374.814 174)">DateUpdated</text><path d="M372.856 177.047 430.429 177.047" stroke="#181818" stroke-width="0.195828" fill="none" transform="scale(1 1.00023)"/><path d="M559.088 84.0101C559.629 84.0101 560.067 84.4485 560.067 84.9892L560.067 124.216C560.067 124.757 559.629 125.195 559.088 125.195L516.398 125.195C515.857 125.195 515.419 124.757 515.419 124.216L515.419 84.9892C515.419 84.4485 515.857 84.0101 516.398 84.0101Z" stroke="#181818" stroke-width="0.195828" fill="#F1F1F1" transform="scale(1 1.00023)"/><path d="M525.602 91.8953C525.602 94.2747 523.673 96.2035 521.293 96.2035 518.914 96.2035 516.985 94.2747 516.985 91.8953 516.985 89.5159 518.914 87.5871 521.293 87.5871 523.673 87.5871 525.602 89.5159 525.602 91.8953Z" stroke="#181818" stroke-width="0.391655" fill="#EB937F" transform="scale(1 1.00023)"/><path d="M520.823 92.238 521.391 92.238 521.391 92.2807C521.391 92.4397 521.403 92.5012 521.434 92.5623 521.497 92.6602 521.607 92.7213 521.72 92.7213 521.818 92.7213 521.924 92.6665 521.987 92.5807 522.034 92.5196 522.045 92.4581 522.045 92.2807L522.045 91.5279C522.045 91.4668 522.045 91.4484 522.041 91.3873 522.014 91.2036 521.893 91.0814 521.716 91.0814 521.618 91.0814 521.513 91.1363 521.446 91.222 521.403 91.2894 521.391 91.3505 521.391 91.5279L521.391 91.5769 520.823 91.5769 520.823 90.6346 522.382 90.6346 522.382 90.971C522.382 91.1304 522.394 91.1978 522.425 91.2589 522.492 91.3568 522.602 91.4179 522.711 91.4179 522.817 91.4179 522.923 91.3626 522.989 91.2773 523.032 91.2099 523.044 91.1547 523.044 90.971L523.044 89.9738 520.056 89.9738C519.887 89.9738 519.836 89.9797 519.774 90.0165 519.68 90.0776 519.617 90.1939 519.617 90.304 519.617 90.4144 519.672 90.5124 519.758 90.5793 519.817 90.6224 519.891 90.6346 520.056 90.6346L520.154 90.6346 520.154 93.1866 520.056 93.1866C519.899 93.1866 519.836 93.1925 519.774 93.2355 519.68 93.3029 519.617 93.4067 519.617 93.523 519.617 93.6272 519.672 93.7251 519.758 93.7862 519.813 93.8352 519.903 93.8536 520.056 93.8536L523.189 93.8536 523.189 92.8439C523.189 92.6723 523.177 92.6175 523.146 92.556 523.079 92.4581 522.97 92.397 522.86 92.397 522.754 92.397 522.652 92.4397 522.586 92.5376 522.543 92.5991 522.531 92.6539 522.531 92.8439L522.531 93.1866 520.823 93.1866 520.823 92.238Z" transform="scale(1 1.00023)"/><text font-family="Arial,Arial_MSFontService,sans-serif" font-style="italic" font-weight="400" font-size="12" transform="matrix(0.391655 0 0 0.391744 533.043 90)">«Enum»</text><text font-family="Arial,Arial_MSFontService,sans-serif" font-weight="400" font-size="14" transform="matrix(0.391655 0 0 0.391744 526.777 97)">BatchState</text><path d="M515.81 99.7805 559.676 99.7805" stroke="#181818" stroke-width="0.195828" fill="none" transform="scale(1 1.00023)"/><text font-family="Arial,Arial_MSFontService,sans-serif" font-weight="400" font-size="14" transform="matrix(0.391655 0 0 0.391744 517.768 106)">Processing</text><text font-family="Arial,Arial_MSFontService,sans-serif" font-weight="400" font-size="14" transform="matrix(0.391655 0 0 0.391744 517.768 113)">Completed</text><text font-family="Arial,Arial_MSFontService,sans-serif" font-weight="400" font-size="14" transform="matrix(0.391655 0 0 0.391744 517.768 119)">Failed</text><path d="M515.81 122.062 559.676 122.062" stroke="#181818" stroke-width="0.195828" fill="none" transform="scale(1 1.00023)"/><path d="M572.013 139.038C572.554 139.038 572.992 139.476 572.992 140.017L572.992 204.775C572.992 205.315 572.554 205.754 572.013 205.754L503.473 205.754C502.932 205.754 502.494 205.315 502.494 204.775L502.494 140.017C502.494 139.476 502.932 139.038 503.473 139.038Z" stroke="#181818" stroke-width="0.195828" fill="#F1F1F1" transform="scale(1 1.00023)"/><path d="M512.677 146.923C512.677 149.302 510.748 151.231 508.369 151.231 505.989 151.231 504.061 149.302 504.061 146.923 504.061 144.544 505.989 142.615 508.369 142.615 510.748 142.615 512.677 144.544 512.677 146.923Z" stroke="#181818" stroke-width="0.391655" fill="#ADD1B2" transform="scale(1 1.00023)"/><path d="M509.285 145.228C508.921 145.056 508.686 145.001 508.345 145.001 507.315 145.001 506.532 145.815 506.532 146.88L506.532 147.32C506.532 148.33 507.358 149.071 508.49 149.071 508.968 149.071 509.422 148.954 509.716 148.74 509.943 148.581 510.069 148.404 510.069 148.251 510.069 148.073 509.916 147.92 509.732 147.92 509.649 147.92 509.567 147.951 509.497 148.024 509.317 148.214 509.317 148.214 509.242 148.251 509.078 148.355 508.807 148.404 508.51 148.404 507.707 148.404 507.202 147.975 507.202 147.308L507.202 146.88C507.202 146.182 507.691 145.668 508.369 145.668 508.596 145.668 508.835 145.73 509.019 145.827 509.207 145.937 509.274 146.023 509.313 146.182 509.336 146.341 509.348 146.39 509.403 146.439 509.458 146.494 509.552 146.537 509.634 146.537 509.74 146.537 509.845 146.482 509.912 146.396 509.955 146.335 509.967 146.262 509.967 146.096L509.967 145.54C509.967 145.368 509.959 145.319 509.924 145.258 509.861 145.154 509.751 145.099 509.634 145.099 509.52 145.099 509.438 145.136 509.356 145.258L509.285 145.228Z" transform="scale(1 1.00023)"/><text font-family="Arial,Arial_MSFontService,sans-serif" font-style="italic" font-weight="400" font-size="12" transform="matrix(0.391655 0 0 0.391744 533.043 145)">«Entity»</text><text font-family="Arial,Arial_MSFontService,sans-serif" font-weight="400" font-size="14" transform="matrix(0.391655 0 0 0.391744 513.852 152)">ProcessedDocument</text><path d="M502.886 154.808 572.6 154.808" stroke="#181818" stroke-width="0.195828" fill="none" transform="scale(1 1.00023)"/><text font-family="Arial,Arial_MSFontService,sans-serif" font-weight="400" font-size="14" transform="matrix(0.391655 0 0 0.391744 504.844 162)">Id</text><text font-family="Arial,Arial_MSFontService,sans-serif" font-weight="400" font-size="14" transform="matrix(0.391655 0 0 0.391744 504.844 168)">Name</text><text font-family="Arial,Arial_MSFontService,sans-serif" font-weight="400" font-size="14" transform="matrix(0.391655 0 0 0.391744 504.844 174)">ContentType</text><text font-family="Arial,Arial_MSFontService,sans-serif" font-weight="400" font-size="14" transform="matrix(0.391655 0 0 0.391744 504.844 181)">IsArchived</text><text font-family="Arial,Arial_MSFontService,sans-serif" font-weight="400" font-size="14" transform="matrix(0.391655 0 0 0.391744 504.844 187)">DateArchived</text><text font-family="Arial,Arial_MSFontService,sans-serif" font-weight="400" font-size="14" transform="matrix(0.391655 0 0 0.391744 504.844 193)">DateAdded</text><text font-family="Arial,Arial_MSFontService,sans-serif" font-weight="400" font-size="14" transform="matrix(0.391655 0 0 0.391744 504.844 200)">DateUpdated</text><path d="M502.886 202.621 572.6 202.621" stroke="#181818" stroke-width="0.195828" fill="none" transform="scale(1 1.00023)"/><path d="M285.125 16.2537C285.666 16.2537 286.104 16.6921 286.104 17.2328L286.104 53.2223C286.104 53.7631 285.666 54.2014 285.125 54.2014L232.252 54.2014C231.711 54.2014 231.273 53.7631 231.273 53.2223L231.273 17.2328C231.273 16.6921 231.711 16.2537 232.252 16.2537Z" stroke="#181818" stroke-width="0.195828" fill="#F1F1F1" transform="scale(1 1.00023)"/><path d="M241.456 22.5202C241.456 24.8995 239.527 26.8284 237.147 26.8284 234.768 26.8284 232.839 24.8995 232.839 22.5202 232.839 20.1408 234.768 18.212 237.147 18.212 239.527 18.212 241.456 20.1408 241.456 22.5202Z" stroke="#181818" stroke-width="0.391655" fill="#ADD1B2" transform="scale(1 1.00023)"/><path d="M238.065 20.8251C237.698 20.6537 237.465 20.5986 237.123 20.5986 236.095 20.5986 235.311 21.4125 235.311 22.4773L235.311 22.918C235.311 23.9277 236.138 24.6682 237.27 24.6682 237.747 24.6682 238.2 24.5519 238.494 24.3377 238.72 24.1786 238.849 24.0012 238.849 23.8481 238.849 23.6707 238.696 23.5177 238.512 23.5177 238.427 23.5177 238.347 23.5483 238.273 23.6217 238.096 23.8114 238.096 23.8114 238.022 23.8481 237.857 23.9522 237.588 24.0012 237.288 24.0012 236.486 24.0012 235.979 23.5728 235.979 22.9057L235.979 22.4773C235.979 21.7797 236.468 21.2657 237.147 21.2657 237.374 21.2657 237.613 21.3269 237.796 21.4248 237.986 21.5349 238.053 21.6206 238.09 21.7797 238.114 21.9388 238.127 21.9878 238.182 22.0367 238.237 22.0918 238.329 22.1346 238.414 22.1346 238.518 22.1346 238.622 22.0796 238.69 21.9939 238.732 21.9327 238.745 21.8593 238.745 21.694L238.745 21.1372C238.745 20.9658 238.738 20.9169 238.702 20.8557 238.64 20.7516 238.53 20.6966 238.414 20.6966 238.298 20.6966 238.218 20.7333 238.133 20.8557L238.065 20.8251Z" transform="scale(1 1.00023)"/><text font-family="Arial,Arial_MSFontService,sans-serif" font-weight="400" font-size="14" transform="matrix(0.391655 0 0 0.391744 242.631 24)">ProcessingStat</text><path d="M231.664 28.7867 285.713 28.7867" stroke="#181818" stroke-width="0.195828" fill="none" transform="scale(1 1.00023)"/><text font-family="Arial,Arial_MSFontService,sans-serif" font-weight="400" font-size="14" transform="matrix(0.391655 0 0 0.391744 233.622 35)">Id</text><text font-family="Arial,Arial_MSFontService,sans-serif" font-weight="400" font-size="14" transform="matrix(0.391655 0 0 0.391744 233.622 42)">StartDate</text><text font-family="Arial,Arial_MSFontService,sans-serif" font-weight="400" font-size="14" transform="matrix(0.391655 0 0 0.391744 233.622 48)">EndDate</text><path d="M231.664 51.0683 285.713 51.0683" stroke="#181818" stroke-width="0.195828" fill="none" transform="scale(1 1.00023)"/><path d="M438.85 17.8203C439.391 17.8203 439.829 18.2587 439.829 18.7995L439.829 51.6435C439.829 52.1842 439.391 52.6226 438.85 52.6226L364.435 52.6226C363.895 52.6226 363.456 52.1842 363.456 51.6435L363.456 18.7995C363.456 18.2587 363.895 17.8203 364.435 17.8203Z" stroke="#181818" stroke-width="0.195828" fill="#F1F1F1" transform="scale(1 1.00023)"/><path d="M373.639 25.7054C373.639 28.0848 371.71 30.0137 369.331 30.0137 366.952 30.0137 365.023 28.0848 365.023 25.7054 365.023 23.3261 366.952 21.3972 369.331 21.3972 371.71 21.3972 373.639 23.3261 373.639 25.7054Z" stroke="#181818" stroke-width="0.391655" fill="#EB937F" transform="scale(1 1.00023)"/><path d="M368.86 26.0481 369.429 26.0481 369.429 26.091C369.429 26.2501 369.441 26.3113 369.472 26.3725 369.533 26.4704 369.643 26.5316 369.76 26.5316 369.857 26.5316 369.961 26.4765 370.023 26.3908 370.072 26.3297 370.084 26.2684 370.084 26.091L370.084 25.3383C370.084 25.2771 370.084 25.2587 370.078 25.1975 370.053 25.0139 369.931 24.8915 369.753 24.8915 369.655 24.8915 369.551 24.9466 369.484 25.0323 369.441 25.0996 369.429 25.1608 369.429 25.3383L369.429 25.3872 368.86 25.3872 368.86 24.4448 370.42 24.4448 370.42 24.7814C370.42 24.9405 370.432 25.0078 370.463 25.069 370.53 25.1669 370.641 25.2281 370.751 25.2281 370.855 25.2281 370.959 25.173 371.026 25.0874 371.069 25.02 371.081 24.965 371.081 24.7814L371.081 23.7839 368.095 23.7839C367.923 23.7839 367.875 23.79 367.813 23.8267 367.716 23.8879 367.654 24.0042 367.654 24.1143 367.654 24.2245 367.709 24.3224 367.795 24.3897 367.856 24.4326 367.93 24.4448 368.095 24.4448L368.193 24.4448 368.193 26.9967 368.095 26.9967C367.936 26.9967 367.875 27.0028 367.813 27.0457 367.716 27.113 367.654 27.217 367.654 27.3333 367.654 27.4373 367.709 27.5352 367.795 27.5964 367.85 27.6454 367.942 27.6637 368.095 27.6637L371.228 27.6637 371.228 26.654C371.228 26.4826 371.216 26.4276 371.185 26.3664 371.118 26.2684 371.008 26.2073 370.898 26.2073 370.794 26.2073 370.69 26.2501 370.622 26.348 370.58 26.4092 370.567 26.4643 370.567 26.654L370.567 26.9967 368.86 26.9967 368.86 26.0481Z" transform="scale(1 1.00023)"/><text font-family="Arial,Arial_MSFontService,sans-serif" font-style="italic" font-weight="400" font-size="12" transform="matrix(0.391655 0 0 0.391744 396.943 24)">«Enum»</text><text font-family="Arial,Arial_MSFontService,sans-serif" font-weight="400" font-size="14" transform="matrix(0.391655 0 0 0.391744 374.814 30)">CompletedBatchState</text><path d="M363.848 33.5906 439.437 33.5906" stroke="#181818" stroke-width="0.195828" fill="none" transform="scale(1 1.00023)"/><text font-family="Arial,Arial_MSFontService,sans-serif" font-weight="400" font-size="14" transform="matrix(0.391655 0 0 0.391744 365.806 40)">Completed</text><text font-family="Arial,Arial_MSFontService,sans-serif" font-weight="400" font-size="14" transform="matrix(0.391655 0 0 0.391744 365.806 47)">Failed</text><path d="M363.848 49.4892 439.437 49.4892" stroke="#181818" stroke-width="0.195828" fill="none" transform="scale(1 1.00023)"/><path d="M175.657 395.572C176.198 395.572 176.637 396.01 176.637 396.551L176.637 454.926C176.637 455.467 176.198 455.905 175.657 455.905L131.792 455.905C131.251 455.905 130.813 455.467 130.813 454.926L130.813 396.551C130.813 396.01 131.251 395.572 131.792 395.572Z" stroke="#181818" stroke-width="0.195828" fill="#F1F1F1" transform="scale(1 1.00023)"/><path d="M140.996 403.456C140.996 405.835 139.067 407.764 136.688 407.764 134.308 407.764 132.38 405.835 132.38 403.456 132.38 401.077 134.308 399.148 136.688 399.148 139.067 399.148 140.996 401.077 140.996 403.456Z" stroke="#181818" stroke-width="0.391655" fill="#ADD1B2" transform="scale(1 1.00023)"/><path d="M137.606 401.76C137.238 401.592 137.006 401.537 136.663 401.537 135.635 401.537 134.852 402.348 134.852 403.413L134.852 403.856C134.852 404.866 135.678 405.606 136.81 405.606 137.287 405.606 137.741 405.489 138.034 405.273 138.261 405.117 138.389 404.936 138.389 404.784 138.389 404.607 138.236 404.455 138.052 404.455 137.967 404.455 137.887 404.486 137.814 404.56 137.636 404.749 137.636 404.749 137.563 404.784 137.397 404.889 137.128 404.936 136.828 404.936 136.027 404.936 135.519 404.51 135.519 403.844L135.519 403.413C135.519 402.716 136.009 402.203 136.688 402.203 136.914 402.203 137.153 402.265 137.336 402.363 137.526 402.473 137.593 402.559 137.63 402.716 137.655 402.876 137.667 402.923 137.722 402.974 137.777 403.029 137.869 403.072 137.954 403.072 138.059 403.072 138.163 403.017 138.23 402.931 138.273 402.869 138.285 402.798 138.285 402.63L138.285 402.073C138.285 401.901 138.279 401.854 138.242 401.792 138.181 401.69 138.071 401.635 137.954 401.635 137.838 401.635 137.759 401.67 137.673 401.792L137.606 401.76Z" transform="scale(1 1.00023)"/><text font-family="Arial,Arial_MSFontService,sans-serif" font-style="italic" font-weight="400" font-size="12" transform="matrix(0.391655 0 0 0.391744 149.025 402)">«Entity»</text><text font-family="Arial,Arial_MSFontService,sans-serif" font-weight="400" font-size="14" transform="matrix(0.391655 0 0 0.391744 142.171 408)">Notification</text><path d="M131.205 411.344 176.245 411.344" stroke="#181818" stroke-width="0.195828" fill="none" transform="scale(1 1.00023)"/><text font-family="Arial,Arial_MSFontService,sans-serif" font-weight="400" font-size="14" transform="matrix(0.391655 0 0 0.391744 133.163 418)">Id</text><text font-family="Arial,Arial_MSFontService,sans-serif" font-weight="400" font-size="14" transform="matrix(0.391655 0 0 0.391744 133.163 424)">Title</text><text font-family="Arial,Arial_MSFontService,sans-serif" font-weight="400" font-size="14" transform="matrix(0.391655 0 0 0.391744 133.163 431)">Content</text><text font-family="Arial,Arial_MSFontService,sans-serif" font-weight="400" font-size="14" transform="matrix(0.391655 0 0 0.391744 133.163 437)">IsDeleted</text><text font-family="Arial,Arial_MSFontService,sans-serif" font-weight="400" font-size="14" transform="matrix(0.391655 0 0 0.391744 133.163 444)">DateAdded</text><text font-family="Arial,Arial_MSFontService,sans-serif" font-weight="400" font-size="14" transform="matrix(0.391655 0 0 0.391744 133.163 450)">DateUpdated</text><path d="M131.205 452.773 176.245 452.773" stroke="#181818" stroke-width="0.195828" fill="none" transform="scale(1 1.00023)"/><path d="M287.671 402.034C288.212 402.034 288.65 402.473 288.65 403.013L288.65 448.623C288.65 449.164 288.212 449.602 287.671 449.602L229.706 449.602C229.165 449.602 228.727 449.164 228.727 448.623L228.727 403.013C228.727 402.473 229.165 402.034 229.706 402.034Z" stroke="#181818" stroke-width="0.195828" fill="#F1F1F1" transform="scale(1 1.00023)"/><path d="M238.91 409.918C238.91 412.298 236.981 414.227 234.602 414.227 232.222 414.227 230.293 412.298 230.293 409.918 230.293 407.539 232.222 405.61 234.602 405.61 236.981 405.61 238.91 407.539 238.91 409.918Z" stroke="#181818" stroke-width="0.391655" fill="#EB937F" transform="scale(1 1.00023)"/><path d="M234.13 410.263 234.7 410.263 234.7 410.306C234.7 410.463 234.712 410.525 234.742 410.588 234.804 410.686 234.914 410.745 235.03 410.745 235.128 410.745 235.232 410.69 235.293 410.604 235.342 410.545 235.354 410.482 235.354 410.306L235.354 409.554C235.354 409.491 235.354 409.472 235.348 409.413 235.324 409.229 235.201 409.104 235.024 409.104 234.926 409.104 234.822 409.162 234.755 409.245 234.712 409.315 234.7 409.374 234.7 409.554L234.7 409.601 234.13 409.601 234.13 408.657 235.691 408.657 235.691 408.994C235.691 409.155 235.703 409.221 235.734 409.284 235.801 409.382 235.911 409.441 236.021 409.441 236.126 409.441 236.229 409.386 236.297 409.3 236.34 409.233 236.352 409.178 236.352 408.994L236.352 407.999 233.366 407.999C233.194 407.999 233.145 408.003 233.084 408.042 232.986 408.101 232.925 408.219 232.925 408.328 232.925 408.438 232.98 408.536 233.066 408.602 233.127 408.645 233.2 408.657 233.366 408.657L233.463 408.657 233.463 411.211 233.366 411.211C233.207 411.211 233.145 411.219 233.084 411.258 232.986 411.328 232.925 411.43 232.925 411.548 232.925 411.649 232.98 411.747 233.066 411.81 233.121 411.861 233.212 411.877 233.366 411.877L236.499 411.877 236.499 410.866C236.499 410.698 236.486 410.643 236.456 410.58 236.388 410.482 236.278 410.42 236.168 410.42 236.064 410.42 235.96 410.463 235.893 410.561 235.85 410.623 235.838 410.678 235.838 410.866L235.838 411.211 234.13 411.211 234.13 410.263Z" transform="scale(1 1.00023)"/><text font-family="Arial,Arial_MSFontService,sans-serif" font-style="italic" font-weight="400" font-size="12" transform="matrix(0.391655 0 0 0.391744 253.989 408)">«Enum»</text><text font-family="Arial,Arial_MSFontService,sans-serif" font-weight="400" font-size="14" transform="matrix(0.391655 0 0 0.391744 240.085 415)">NotificationType</text><path d="M229.118 417.806 288.258 417.806" stroke="#181818" stroke-width="0.195828" fill="none" transform="scale(1 1.00023)"/><text font-family="Arial,Arial_MSFontService,sans-serif" font-weight="400" font-size="14" transform="matrix(0.391655 0 0 0.391744 231.077 425)">Positive</text><text font-family="Arial,Arial_MSFontService,sans-serif" font-weight="400" font-size="14" transform="matrix(0.391655 0 0 0.391744 231.077 431)">Negative</text><text font-family="Arial,Arial_MSFontService,sans-serif" font-weight="400" font-size="14" transform="matrix(0.391655 0 0 0.391744 231.077 437)">Warning</text><text font-family="Arial,Arial_MSFontService,sans-serif" font-weight="400" font-size="14" transform="matrix(0.391655 0 0 0.391744 231.077 444)">Info</text><path d="M229.118 446.468 288.258 446.468" stroke="#181818" stroke-width="0.195828" fill="none" transform="scale(1 1.00023)"/><path d="M60.9024 373.052C61.4432 373.052 61.8816 373.49 61.8816 374.031L61.8816 413.258C61.8816 413.798 61.4432 414.237 60.9024 414.237L20.5619 414.237C20.0211 414.237 19.5828 413.798 19.5828 413.258L19.5828 374.031C19.5828 373.49 20.0211 373.052 20.5619 373.052Z" stroke="#181818" stroke-width="0.195828" fill="#F1F1F1" transform="scale(1 1.00023)"/><path d="M35.0532 380.937C35.0532 383.316 33.1243 385.245 30.745 385.245 28.3656 385.245 26.4367 383.316 26.4367 380.937 26.4367 378.558 28.3656 376.629 30.745 376.629 33.1243 376.629 35.0532 378.558 35.0532 380.937Z" stroke="#181818" stroke-width="0.391655" fill="#ADD1B2" transform="scale(1 1.00023)"/><path d="M31.6629 379.242C31.2957 379.07 31.0632 379.016 30.7205 379.016 29.6924 379.016 28.9091 379.829 28.9091 380.894L28.9091 381.335C28.9091 382.345 29.7352 383.085 30.8673 383.085 31.3447 383.085 31.7975 382.969 32.0913 382.754 32.3177 382.595 32.4462 382.418 32.4462 382.265 32.4462 382.087 32.2932 381.935 32.1096 381.935 32.0239 381.935 31.9444 381.965 31.871 382.038 31.6935 382.228 31.6935 382.228 31.6201 382.265 31.4548 382.369 31.1856 382.418 30.8857 382.418 30.084 382.418 29.5761 381.989 29.5761 381.322L29.5761 380.894C29.5761 380.196 30.0657 379.683 30.745 379.683 30.9714 379.683 31.21 379.744 31.3937 379.842 31.5833 379.952 31.6507 380.037 31.6874 380.196 31.7119 380.355 31.7241 380.404 31.7792 380.453 31.8343 380.509 31.926 380.551 32.0117 380.551 32.1157 380.551 32.2198 380.496 32.2871 380.411 32.3299 380.35 32.3422 380.276 32.3422 380.111L32.3422 379.554C32.3422 379.383 32.3361 379.334 32.2994 379.272 32.2381 379.168 32.128 379.113 32.0117 379.113 31.8954 379.113 31.8159 379.15 31.7302 379.272L31.6629 379.242Z" transform="scale(1 1.00023)"/><text font-family="Arial,Arial_MSFontService,sans-serif" font-style="italic" font-weight="400" font-size="12" transform="matrix(0.391655 0 0 0.391744 36.6198 379)">«Entity»</text><text font-family="Arial,Arial_MSFontService,sans-serif" font-weight="400" font-size="14" transform="matrix(0.391655 0 0 0.391744 40.3405 386)">User</text><path d="M19.9744 388.822 61.4899 388.822" stroke="#181818" stroke-width="0.195828" fill="none" transform="scale(1 1.00023)"/><text font-family="Arial,Arial_MSFontService,sans-serif" font-weight="400" font-size="14" transform="matrix(0.391655 0 0 0.391744 21.9327 396)">Token</text><text font-family="Arial,Arial_MSFontService,sans-serif" font-weight="400" font-size="14" transform="matrix(0.391655 0 0 0.391744 21.9327 402)">DateAdded</text><text font-family="Arial,Arial_MSFontService,sans-serif" font-weight="400" font-size="14" transform="matrix(0.391655 0 0 0.391744 21.9327 408)">DateUpdated</text><path d="M19.9744 411.105 61.4899 411.105" stroke="#181818" stroke-width="0.195828" fill="none" transform="scale(1 1.00023)"/><path d="M176.338 318.165C194.445 317.961 219.824 317.675 237.527 317.475" stroke="#181818" stroke-width="0.391655" fill="none" transform="scale(1 1.00023)"/><path d="M192.303 314.307 188.747 313.196 188.773 315.498 192.303 314.307Z" stroke="#000000" stroke-width="0.391655" transform="scale(1 1.00023)"/><text font-family="Arial,Arial_MSFontService,sans-serif" font-weight="400" font-size="13" transform="matrix(0.391655 0 0 0.391744 193.869 316)">obsahuje</text><text font-family="Arial,Arial_MSFontService,sans-serif" font-weight="400" font-size="13" transform="matrix(0.391655 0 0 0.391744 179.436 323)">1</text><text font-family="Arial,Arial_MSFontService,sans-serif" font-weight="400" font-size="13" transform="matrix(0.391655 0 0 0.391744 225.391 323)">0</text><text font-family="Arial,Arial_MSFontService,sans-serif" font-weight="400" font-size="13" transform="matrix(0.391655 0 0 0.391744 228.133 323)">..*</text><path d="M61.9665 379.646C81.6139 366.479 110.964 346.81 131.065 333.339" stroke="#181818" stroke-width="0.391655" fill="none" transform="scale(1 1.00023)"/><path d="M89.3578 338.305 85.7741 339.321 87.0556 341.234 89.3578 338.305Z" stroke="#000000" stroke-width="0.391655" transform="scale(1 1.00023)"/><text font-family="Arial,Arial_MSFontService,sans-serif" font-weight="400" font-size="13" transform="matrix(0.391655 0 0 0.391744 91.2557 341)">je spojen s</text><text font-family="Arial,Arial_MSFontService,sans-serif" font-weight="400" font-size="13" transform="matrix(0.391655 0 0 0.391744 64.9424 383)">1</text><text font-family="Arial,Arial_MSFontService,sans-serif" font-weight="400" font-size="13" transform="matrix(0.391655 0 0 0.391744 67.6839 383)">..*</text><text font-family="Arial,Arial_MSFontService,sans-serif" font-weight="400" font-size="13" transform="matrix(0.391655 0 0 0.391744 119.086 340)">0</text><text font-family="Arial,Arial_MSFontService,sans-serif" font-weight="400" font-size="13" transform="matrix(0.391655 0 0 0.391744 121.827 340)">..*</text><path d="M61.9665 399.579C81.4874 405.168 110.585 413.494 130.674 419.244" stroke="#181818" stroke-width="0.391655" fill="none" transform="scale(1 1.00023)"/><path d="M98.8174 403.773 95.7284 401.694 95.0947 403.906 98.8174 403.773Z" stroke="#000000" stroke-width="0.391655" transform="scale(1 1.00023)"/><text font-family="Arial,Arial_MSFontService,sans-serif" font-weight="400" font-size="13" transform="matrix(0.391655 0 0 0.391744 100.46 405)">má</text><text font-family="Arial,Arial_MSFontService,sans-serif" font-weight="400" font-size="13" transform="matrix(0.391655 0 0 0.391744 65.0305 406)">1</text><text font-family="Arial,Arial_MSFontService,sans-serif" font-weight="400" font-size="13" transform="matrix(0.391655 0 0 0.391744 118.652 424)">0</text><text font-family="Arial,Arial_MSFontService,sans-serif" font-weight="400" font-size="13" transform="matrix(0.391655 0 0 0.391744 121.394 424)">..*</text><path d="M279.905 310.07C302.735 302.208 339.725 289.471 366.872 280.123" stroke="#181818" stroke-width="0.391655" fill="none" transform="scale(1 1.00023)"/><path d="M306.56 281.576 302.835 281.641 303.585 283.818 306.56 281.576Z" stroke="#000000" stroke-width="0.391655" transform="scale(1 1.00023)"/><text font-family="Arial,Arial_MSFontService,sans-serif" font-weight="400" font-size="13" transform="matrix(0.391655 0 0 0.391744 308.233 284)">obsahuje několik</text><text font-family="Arial,Arial_MSFontService,sans-serif" font-weight="400" font-size="13" transform="matrix(0.391655 0 0 0.391744 282.967 314)">1</text><text font-family="Arial,Arial_MSFontService,sans-serif" font-weight="400" font-size="13" transform="matrix(0.391655 0 0 0.391744 354.857 286)">0</text><text font-family="Arial,Arial_MSFontService,sans-serif" font-weight="400" font-size="13" transform="matrix(0.391655 0 0 0.391744 357.599 286)">..*</text><path d="M279.299 293.458C304.597 263.699 347.946 212.707 375.567 180.216" stroke="#181818" stroke-width="0.391655" fill="none" transform="scale(1 1.00023)"/><path d="M315.376 203.957 312.205 205.911 313.958 207.402 315.376 203.957Z" stroke="#000000" stroke-width="0.391655" transform="scale(1 1.00023)"/><text font-family="Arial,Arial_MSFontService,sans-serif" font-weight="400" font-size="13" transform="matrix(0.391655 0 0 0.391744 317.633 207)">obsahuje</text><text font-family="Arial,Arial_MSFontService,sans-serif" font-weight="400" font-size="13" transform="matrix(0.391655 0 0 0.391744 278.368 289)">1</text><text font-family="Arial,Arial_MSFontService,sans-serif" font-weight="400" font-size="13" transform="matrix(0.391655 0 0 0.391744 363.74 188)">0</text><text font-family="Arial,Arial_MSFontService,sans-serif" font-weight="400" font-size="13" transform="matrix(0.391655 0 0 0.391744 366.482 188)">..*</text><path d="M279.905 320.683C302.157 324.361 337.86 330.262 364.79 334.714" stroke="#181818" stroke-width="0.391655" fill="none" transform="scale(1 1.00023)"/><path d="M305.073 321.699 301.766 319.985 301.391 322.256 305.073 321.699Z" stroke="#000000" stroke-width="0.391655" transform="scale(1 1.00023)"/><text font-family="Arial,Arial_MSFontService,sans-serif" font-weight="400" font-size="13" transform="matrix(0.391655 0 0 0.391744 306.666 323)">je nastaven podle</text><text font-family="Arial,Arial_MSFontService,sans-serif" font-weight="400" font-size="13" transform="matrix(0.391655 0 0 0.391744 282.967 326)">1</text><text font-family="Arial,Arial_MSFontService,sans-serif" font-weight="400" font-size="13" transform="matrix(0.391655 0 0 0.391744 352.339 339)">0</text><text font-family="Arial,Arial_MSFontService,sans-serif" font-weight="400" font-size="13" transform="matrix(0.391655 0 0 0.391744 355.081 339)">..</text><text font-family="Arial,Arial_MSFontService,sans-serif" font-weight="400" font-size="13" transform="matrix(0.391655 0 0 0.391744 358.214 339)">1</text><path d="M436.355 269.973C459.572 271.115 489.769 272.601 511.075 273.649" stroke="#181818" stroke-width="0.391655" fill="none" transform="scale(1 1.00023)"/><path d="M458.625 267.427 455.143 266.103 455.033 268.403 458.625 267.427Z" stroke="#000000" stroke-width="0.391655" transform="scale(1 1.00023)"/><text font-family="Arial,Arial_MSFontService,sans-serif" font-weight="400" font-size="13" transform="matrix(0.391655 0 0 0.391744 460.195 269)">se skládá z</text><text font-family="Arial,Arial_MSFontService,sans-serif" font-weight="400" font-size="13" transform="matrix(0.391655 0 0 0.391744 439.473 275)">1</text><text font-family="Arial,Arial_MSFontService,sans-serif" font-weight="400" font-size="13" transform="matrix(0.391655 0 0 0.391744 499 279)">0</text><text font-family="Arial,Arial_MSFontService,sans-serif" font-weight="400" font-size="13" transform="matrix(0.391655 0 0 0.391744 501.742 279)">..*</text><path d="M430.895 154.766C451.814 158.217 480.209 162.901 502.408 166.564" stroke="#181818" stroke-width="0.391655" fill="none" transform="scale(1 1.00023)"/><path d="M458.601 155.244 455.296 153.532 454.92 155.804 458.601 155.244Z" stroke="#000000" stroke-width="0.391655" transform="scale(1 1.00023)"/><text font-family="Arial,Arial_MSFontService,sans-serif" font-weight="400" font-size="13" transform="matrix(0.391655 0 0 0.391744 460.195 157)">se skládá z</text><text font-family="Arial,Arial_MSFontService,sans-serif" font-weight="400" font-size="13" transform="matrix(0.391655 0 0 0.391744 433.931 160)">1</text><text font-family="Arial,Arial_MSFontService,sans-serif" font-weight="400" font-size="13" transform="matrix(0.391655 0 0 0.391744 490.349 171)">1</text><text font-family="Arial,Arial_MSFontService,sans-serif" font-weight="400" font-size="13" transform="matrix(0.391655 0 0 0.391744 493.09 171)">..*</text><path d="M430.895 140.313C456.161 131.831 492.331 119.688 515.325 111.968" stroke="#181818" stroke-width="0.391655" fill="none" transform="scale(1 1.00023)"/><path d="M468.318 116.312 464.593 116.348 465.326 118.531 468.318 116.312Z" stroke="#000000" stroke-width="0.391655" transform="scale(1 1.00023)"/><text font-family="Arial,Arial_MSFontService,sans-serif" font-weight="400" font-size="13" transform="matrix(0.391655 0 0 0.391744 469.987 119)">má</text><path d="M502.478 197.058C482.144 211.478 456.596 229.594 436.355 243.946" stroke="#181818" stroke-width="0.391655" fill="none" transform="scale(1 1.00023)"/><path d="M452.722 203.841 456.279 202.73 454.947 200.852 452.722 203.841Z" stroke="#000000" stroke-width="0.391655" transform="scale(1 1.00023)"/><text font-family="Arial,Arial_MSFontService,sans-serif" font-weight="400" font-size="13" transform="matrix(0.391655 0 0 0.391744 457.845 205)">má strukturu</text><text font-family="Arial,Arial_MSFontService,sans-serif" font-weight="400" font-size="13" transform="matrix(0.391655 0 0 0.391744 490.302 204)">0</text><text font-family="Arial,Arial_MSFontService,sans-serif" font-weight="400" font-size="13" transform="matrix(0.391655 0 0 0.391744 493.043 204)">..*</text><text font-family="Arial,Arial_MSFontService,sans-serif" font-weight="400" font-size="13" transform="matrix(0.391655 0 0 0.391744 439.473 247)">1</text><path d="M176.722 425.729C191.923 425.729 212.117 425.729 228.61 425.729" stroke="#181818" stroke-width="0.391655" fill="none" transform="scale(1 1.00023)"/><path d="M195.044 422.428 191.502 421.276 191.502 423.579 195.044 422.428Z" stroke="#000000" stroke-width="0.391655" transform="scale(1 1.00023)"/><text font-family="Arial,Arial_MSFontService,sans-serif" font-weight="400" font-size="13" transform="matrix(0.391655 0 0 0.391744 196.611 424)">je typu</text><path d="M282.716 54.3265C307.352 74.2109 345.979 105.391 372.398 126.715" stroke="#181818" stroke-width="0.391655" fill="none" transform="scale(1 1.00023)"/><path d="M317.786 69.9916 315.752 66.8709 314.306 68.6623 317.786 69.9916Z" stroke="#000000" stroke-width="0.391655" transform="scale(1 1.00023)"/><text font-family="Arial,Arial_MSFontService,sans-serif" font-weight="400" font-size="13" transform="matrix(0.391655 0 0 0.391744 319.787 71)">se týká</text><text font-family="Arial,Arial_MSFontService,sans-serif" font-weight="400" font-size="13" transform="matrix(0.391655 0 0 0.391744 275.914 62)">0</text><text font-family="Arial,Arial_MSFontService,sans-serif" font-weight="400" font-size="13" transform="matrix(0.391655 0 0 0.391744 278.655 62)">..</text><text font-family="Arial,Arial_MSFontService,sans-serif" font-weight="400" font-size="13" transform="matrix(0.391655 0 0 0.391744 281.789 62)">1</text><text font-family="Arial,Arial_MSFontService,sans-serif" font-weight="400" font-size="13" transform="matrix(0.391655 0 0 0.391744 366.232 129)">1</text><path d="M286.156 35.249C308.03 35.249 339.069 35.249 363.402 35.249" stroke="#181818" stroke-width="0.391655" fill="none" transform="scale(1 1.00023)"/><path d="M323.312 31.9459 319.769 30.7949 319.769 33.097 323.312 31.9459Z" stroke="#000000" stroke-width="0.391655" transform="scale(1 1.00023)"/><text font-family="Arial,Arial_MSFontService,sans-serif" font-weight="400" font-size="13" transform="matrix(0.391655 0 0 0.391744 324.878 34)">má</text></g></svg>