<svg width="466" height="703" xmlns="http://www.w3.org/2000/svg" xmlns:xlink="http://www.w3.org/1999/xlink" xml:space="preserve" overflow="hidden"><g><path d="M4.74246 74.2056 43.2401 74.2056C43.9088 74.4086 44.4321 74.9314 44.6349 75.6004L48.5405 86.6459 375.212 86.6459C375.983 86.6459 376.607 87.2702 376.607 88.0407L376.607 629.073C376.607 629.843 375.983 630.468 375.212 630.468L4.74246 630.468C3.97211 630.468 3.34762 629.843 3.34762 629.073L3.34762 75.6004C3.34762 74.8299 3.97211 74.2056 4.74246 74.2056" stroke="#000000" stroke-width="0.836905" fill="none" transform="scale(1.00026 1)"/><path d="M3.34762 86.6459 48.5405 86.6459" stroke="#000000" stroke-width="0.836905" fill="none" transform="scale(1.00026 1)"/><text font-family="Arial,Arial_MSFontService,sans-serif" font-weight="700" font-size="14" transform="matrix(0.558084 0 0 0.557936 5.58084 83)">Backend</text><path d="M254.419 313.56C255.189 313.56 255.814 314.185 255.814 314.955L255.814 337.996C255.814 338.767 255.189 339.391 254.419 339.391L165.149 339.391C164.379 339.391 163.754 338.767 163.754 337.996L163.754 314.955C163.754 314.185 164.379 313.56 165.149 313.56Z" stroke="#181818" stroke-width="0.278968" fill="#F1F1F1" transform="scale(1.00026 1)"/><path d="M244.655 316.35 253.024 316.35 253.024 321.929 244.655 321.929Z" stroke="#181818" stroke-width="0.278968" fill="#F1F1F1" transform="scale(1.00026 1)"/><path d="M243.539 317.466 245.771 317.466 245.771 318.582 243.539 318.582Z" stroke="#181818" stroke-width="0.278968" fill="#F1F1F1" transform="scale(1.00026 1)"/><path d="M243.539 319.698 245.771 319.698 245.771 320.813 243.539 320.813Z" stroke="#181818" stroke-width="0.278968" fill="#F1F1F1" transform="scale(1.00026 1)"/><text font-family="Arial,Arial_MSFontService,sans-serif" font-weight="400" font-size="14" transform="matrix(0.558084 0 0 0.557936 172.169 332)">Workflow Service</text><path d="M143.39 326.393C143.39 328.858 141.391 330.856 138.926 330.856 136.461 330.856 134.463 328.858 134.463 326.393 134.463 323.928 136.461 321.929 138.926 321.929 141.391 321.929 143.39 323.928 143.39 326.393Z" stroke="#181818" stroke-width="0.278968" fill="#F1F1F1" transform="scale(1.00026 1)"/><text font-family="Arial,Arial_MSFontService,sans-serif" font-weight="400" font-size="14" transform="matrix(0.558084 0 0 0.557936 96.5485 343)">Workflow Service API</text><path d="M357.358 595.876C358.129 595.876 358.753 596.501 358.753 597.271L358.753 620.312C358.753 621.082 358.129 621.707 357.358 621.707L257.488 621.707C256.717 621.707 256.093 621.082 256.093 620.312L256.093 597.271C256.093 596.501 256.717 595.876 257.488 595.876Z" stroke="#181818" stroke-width="0.278968" fill="#F1F1F1" transform="scale(1.00026 1)"/><path d="M347.594 598.666 355.963 598.666 355.963 604.245 347.594 604.245Z" stroke="#181818" stroke-width="0.278968" fill="#F1F1F1" transform="scale(1.00026 1)"/><path d="M346.479 599.782 348.71 599.782 348.71 600.898 346.479 600.898Z" stroke="#181818" stroke-width="0.278968" fill="#F1F1F1" transform="scale(1.00026 1)"/><path d="M346.479 602.013 348.71 602.013 348.71 603.129 346.479 603.129Z" stroke="#181818" stroke-width="0.278968" fill="#F1F1F1" transform="scale(1.00026 1)"/><text font-family="Arial,Arial_MSFontService,sans-serif" font-weight="400" font-size="14" transform="matrix(0.558084 0 0 0.557936 264.532 614)">Recognition Service</text><path d="M299.612 545.662C299.612 548.127 297.614 550.125 295.148 550.125 292.683 550.125 290.685 548.127 290.685 545.662 290.685 543.197 292.683 541.198 295.148 541.198 297.614 541.198 299.612 543.197 299.612 545.662Z" stroke="#181818" stroke-width="0.278968" fill="#F1F1F1" transform="scale(1.00026 1)"/><text font-family="Arial,Arial_MSFontService,sans-serif" font-weight="400" font-size="14" transform="matrix(0.558084 0 0 0.557936 247.51 562)">Recognition Service API</text><path d="M116.609 595.876C117.379 595.876 118.004 596.501 118.004 597.271L118.004 620.312C118.004 621.082 117.379 621.707 116.609 621.707L13.9484 621.707C13.1781 621.707 12.5536 621.082 12.5536 620.312L12.5536 597.271C12.5536 596.501 13.1781 595.876 13.9484 595.876Z" stroke="#181818" stroke-width="0.278968" fill="#F1F1F1" transform="scale(1.00026 1)"/><path d="M106.845 598.666 115.214 598.666 115.214 604.245 106.845 604.245Z" stroke="#181818" stroke-width="0.278968" fill="#F1F1F1" transform="scale(1.00026 1)"/><path d="M105.729 599.782 107.961 599.782 107.961 600.898 105.729 600.898Z" stroke="#181818" stroke-width="0.278968" fill="#F1F1F1" transform="scale(1.00026 1)"/><path d="M105.729 602.013 107.961 602.013 107.961 603.129 105.729 603.129Z" stroke="#181818" stroke-width="0.278968" fill="#F1F1F1" transform="scale(1.00026 1)"/><text font-family="Arial,Arial_MSFontService,sans-serif" font-weight="400" font-size="14" transform="matrix(0.558084 0 0 0.557936 20.9281 614)">Notifications Service</text><path d="M66.9524 545.662C66.9524 548.127 64.954 550.125 62.4889 550.125 60.0238 550.125 58.0254 548.127 58.0254 545.662 58.0254 543.197 60.0238 541.198 62.4889 541.198 64.954 541.198 66.9524 543.197 66.9524 545.662Z" stroke="#181818" stroke-width="0.278968" fill="#F1F1F1" transform="scale(1.00026 1)"/><text font-family="Arial,Arial_MSFontService,sans-serif" font-weight="400" font-size="14" transform="matrix(0.558084 0 0 0.557936 16.4635 562)">Nofications Service API</text><path d="M366.285 313.56C367.056 313.56 367.68 314.185 367.68 314.955L367.68 337.996C367.68 338.767 367.056 339.391 366.285 339.391L297.659 339.391C296.889 339.391 296.264 338.767 296.264 337.996L296.264 314.955C296.264 314.185 296.889 313.56 297.659 313.56Z" stroke="#181818" stroke-width="0.278968" fill="#F1F1F1" transform="scale(1.00026 1)"/><path d="M356.521 316.35 364.89 316.35 364.89 321.929 356.521 321.929Z" stroke="#181818" stroke-width="0.278968" fill="#F1F1F1" transform="scale(1.00026 1)"/><path d="M355.406 317.466 357.637 317.466 357.637 318.582 355.406 318.582Z" stroke="#181818" stroke-width="0.278968" fill="#F1F1F1" transform="scale(1.00026 1)"/><path d="M355.406 319.698 357.637 319.698 357.637 320.813 355.406 320.813Z" stroke="#181818" stroke-width="0.278968" fill="#F1F1F1" transform="scale(1.00026 1)"/><text font-family="Arial,Arial_MSFontService,sans-serif" font-weight="400" font-size="14" transform="matrix(0.558084 0 0 0.557936 304.714 332)">User Service</text><path d="M335.878 254.419C335.878 256.884 333.879 258.883 331.414 258.883 328.949 258.883 326.951 256.884 326.951 254.419 326.951 251.954 328.949 249.956 331.414 249.956 333.879 249.956 335.878 251.954 335.878 254.419Z" stroke="#181818" stroke-width="0.278968" fill="#F1F1F1" transform="scale(1.00026 1)"/><text font-family="Arial,Arial_MSFontService,sans-serif" font-weight="400" font-size="14" transform="matrix(0.558084 0 0 0.557936 299.412 271)">User Service API</text><path d="M226.801 595.876C227.572 595.876 228.196 596.501 228.196 597.271L228.196 620.312C228.196 621.082 227.572 621.707 226.801 621.707L139.205 621.707C138.435 621.707 137.81 621.082 137.81 620.312L137.81 597.271C137.81 596.501 138.435 595.876 139.205 595.876Z" stroke="#181818" stroke-width="0.278968" fill="#F1F1F1" transform="scale(1.00026 1)"/><path d="M217.037 598.666 225.406 598.666 225.406 604.245 217.037 604.245Z" stroke="#181818" stroke-width="0.278968" fill="#F1F1F1" transform="scale(1.00026 1)"/><path d="M215.921 599.782 218.153 599.782 218.153 600.898 215.921 600.898Z" stroke="#181818" stroke-width="0.278968" fill="#F1F1F1" transform="scale(1.00026 1)"/><path d="M215.921 602.013 218.153 602.013 218.153 603.129 215.921 603.129Z" stroke="#181818" stroke-width="0.278968" fill="#F1F1F1" transform="scale(1.00026 1)"/><text font-family="Arial,Arial_MSFontService,sans-serif" font-weight="400" font-size="14" transform="matrix(0.558084 0 0 0.557936 146.218 614)">Analytics Service</text><path d="M182.445 545.662C182.445 548.127 180.447 550.125 177.982 550.125 175.517 550.125 173.518 548.127 173.518 545.662 173.518 543.197 175.517 541.198 177.982 541.198 180.447 541.198 182.445 543.197 182.445 545.662Z" stroke="#181818" stroke-width="0.278968" fill="#F1F1F1" transform="scale(1.00026 1)"/><text font-family="Arial,Arial_MSFontService,sans-serif" font-weight="400" font-size="14" transform="matrix(0.558084 0 0 0.557936 136.451 562)">Analytics Service API</text><path d="M218.432 451.371C219.202 451.371 219.827 451.995 219.827 452.765L219.827 484.899C219.827 485.67 219.202 486.294 218.432 486.294L137.531 486.294C136.761 486.294 136.137 485.67 136.137 484.899L136.137 452.765C136.137 451.995 136.761 451.371 137.531 451.371Z" stroke="#181818" stroke-width="0.278968" fill="#F1F1F1" transform="scale(1.00026 1)"/><path d="M208.668 454.16 217.037 454.16 217.037 459.74 208.668 459.74Z" stroke="#181818" stroke-width="0.278968" fill="#F1F1F1" transform="scale(1.00026 1)"/><path d="M207.552 455.276 209.784 455.276 209.784 456.392 207.552 456.392Z" stroke="#181818" stroke-width="0.278968" fill="#F1F1F1" transform="scale(1.00026 1)"/><path d="M207.552 457.508 209.784 457.508 209.784 458.624 207.552 458.624Z" stroke="#181818" stroke-width="0.278968" fill="#F1F1F1" transform="scale(1.00026 1)"/><text font-family="Arial,Arial_MSFontService,sans-serif" font-style="italic" font-weight="400" font-size="14" transform="matrix(0.558084 0 0 0.557936 159.333 470)">«cloud»</text><text font-family="Arial,Arial_MSFontService,sans-serif" font-weight="400" font-size="14" transform="matrix(0.558084 0 0 0.557936 144.544 479)">Message Queue</text><path d="M235.449 399.762C235.449 402.227 233.451 404.225 230.986 404.225 228.521 404.225 226.522 402.227 226.522 399.762 226.522 397.296 228.521 395.298 230.986 395.298 233.451 395.298 235.449 397.296 235.449 399.762Z" stroke="#181818" stroke-width="0.278968" fill="#F1F1F1" transform="scale(1.00026 1)"/><text font-family="Arial,Arial_MSFontService,sans-serif" font-weight="400" font-size="14" transform="matrix(0.558084 0 0 0.557936 192.818 416)">Message Queue API</text><path d="M325.556 160.128C326.326 160.128 326.951 160.752 326.951 161.523L326.951 193.656C326.951 194.427 326.326 195.051 325.556 195.051L224.569 195.051C223.799 195.051 223.175 194.427 223.175 193.656L223.175 161.523C223.175 160.752 223.799 160.128 224.569 160.128Z" stroke="#181818" stroke-width="0.278968" fill="#F1F1F1" transform="scale(1.00026 1)"/><path d="M315.792 162.917 324.161 162.917 324.161 168.497 315.792 168.497Z" stroke="#181818" stroke-width="0.278968" fill="#F1F1F1" transform="scale(1.00026 1)"/><path d="M314.676 164.033 316.908 164.033 316.908 165.149 314.676 165.149Z" stroke="#181818" stroke-width="0.278968" fill="#F1F1F1" transform="scale(1.00026 1)"/><path d="M314.676 166.265 316.908 166.265 316.908 167.381 314.676 167.381Z" stroke="#181818" stroke-width="0.278968" fill="#F1F1F1" transform="scale(1.00026 1)"/><text font-family="Arial,Arial_MSFontService,sans-serif" font-style="italic" font-weight="400" font-size="14" transform="matrix(0.558084 0 0 0.557936 256.44 179)">«cloud»</text><text font-family="Arial,Arial_MSFontService,sans-serif" font-weight="400" font-size="14" transform="matrix(0.558084 0 0 0.557936 231.605 188)">API Service Gateway</text><path d="M311.329 109.913C311.329 112.379 309.33 114.377 306.865 114.377 304.4 114.377 302.402 112.379 302.402 109.913 302.402 107.448 304.4 105.45 306.865 105.45 309.33 105.45 311.329 107.448 311.329 109.913Z" stroke="#181818" stroke-width="0.278968" fill="#F1F1F1" transform="scale(1.00026 1)"/><text font-family="Arial,Arial_MSFontService,sans-serif" font-weight="400" font-size="14" transform="matrix(0.558084 0 0 0.557936 282.111 127)">Gateway API</text><path d="M442.444 3.90556C443.214 3.90556 443.838 4.53005 443.838 5.3004L443.838 37.4341C443.838 38.2044 443.214 38.8289 442.444 38.8289L349.826 38.8289C349.056 38.8289 348.431 38.2044 348.431 37.4341L348.431 5.3004C348.431 4.53005 349.056 3.90556 349.826 3.90556Z" stroke="#181818" stroke-width="0.278968" fill="#F1F1F1" transform="scale(1.00026 1)"/><path d="M432.68 6.69524 441.049 6.69524 441.049 12.2746 432.68 12.2746Z" stroke="#181818" stroke-width="0.278968" fill="#F1F1F1" transform="scale(1.00026 1)"/><path d="M431.564 7.81111 433.796 7.81111 433.796 8.92698 431.564 8.92698Z" stroke="#181818" stroke-width="0.278968" fill="#F1F1F1" transform="scale(1.00026 1)"/><path d="M431.564 10.0429 433.796 10.0429 433.796 11.1587 431.564 11.1587Z" stroke="#181818" stroke-width="0.278968" fill="#F1F1F1" transform="scale(1.00026 1)"/><text font-family="Arial,Arial_MSFontService,sans-serif" font-style="italic" font-weight="400" font-size="14" transform="matrix(0.558084 0 0 0.557936 366.94 22)">«Subsystem»</text><text font-family="Arial,Arial_MSFontService,sans-serif" font-weight="400" font-size="14" transform="matrix(0.558084 0 0 0.557936 356.895 31)">Klientská aplikace</text><path d="M461.135 382.186C461.905 382.186 462.529 382.811 462.529 383.581L462.529 415.715C462.529 416.485 461.905 417.11 461.135 417.11L386.929 417.11C386.159 417.11 385.534 416.485 385.534 415.715L385.534 383.581C385.534 382.811 386.159 382.186 386.929 382.186Z" stroke="#181818" stroke-width="0.278968" fill="#F1F1F1" transform="scale(1.00026 1)"/><path d="M451.371 384.976 459.74 384.976 459.74 390.556 451.371 390.556Z" stroke="#181818" stroke-width="0.278968" fill="#F1F1F1" transform="scale(1.00026 1)"/><path d="M450.255 386.092 452.486 386.092 452.486 387.208 450.255 387.208Z" stroke="#181818" stroke-width="0.278968" fill="#F1F1F1" transform="scale(1.00026 1)"/><path d="M450.255 388.324 452.486 388.324 452.486 389.44 450.255 389.44Z" stroke="#181818" stroke-width="0.278968" fill="#F1F1F1" transform="scale(1.00026 1)"/><text font-family="Arial,Arial_MSFontService,sans-serif" font-style="italic" font-weight="400" font-size="14" transform="matrix(0.558084 0 0 0.557936 394.007 401)">«Ext</text><text font-family="Arial,Arial_MSFontService,sans-serif" font-style="italic" font-weight="400" font-size="14" transform="matrix(0.558084 0 0 0.557936 409.075 401)">. </text><text font-family="Arial,Arial_MSFontService,sans-serif" font-style="italic" font-weight="400" font-size="14" transform="matrix(0.558084 0 0 0.557936 413.54 401)">system»</text><text font-family="Arial,Arial_MSFontService,sans-serif" font-weight="400" font-size="14" transform="matrix(0.558084 0 0 0.557936 404.332 410)">Firebase</text><path d="M311.887 681.798C311.887 684.264 309.888 686.262 307.423 686.262 304.958 686.262 302.96 684.264 302.96 681.798 302.96 679.333 304.958 677.335 307.423 677.335 309.888 677.335 311.887 679.333 311.887 681.798Z" stroke="#181818" stroke-width="0.278968" fill="#F1F1F1" transform="scale(1.00026 1)"/><text font-family="Arial,Arial_MSFontService,sans-serif" font-weight="400" font-size="14" transform="matrix(0.558084 0 0 0.557936 262.578 699)">Document storage API</text><path d="M144.185 326.393C150.677 326.393 157.168 326.393 163.66 326.393" stroke="#181818" stroke-width="0.557937" fill="none" transform="scale(1.00026 1)"/><path d="M296.071 550.875C297.944 560.324 302.248 582.039 304.985 595.848" stroke="#181818" stroke-width="0.557937" fill="none" transform="scale(1.00026 1)"/><path d="M62.6987 550.875C63.1244 560.324 64.1024 582.039 64.7245 595.848" stroke="#181818" stroke-width="0.557937" fill="none" transform="scale(1.00026 1)"/><path d="M331.451 259.626C331.536 270.402 331.748 297.385 331.874 313.381" stroke="#181818" stroke-width="0.557937" fill="none" transform="scale(1.00026 1)"/><path d="M178.359 550.875C179.126 560.324 180.886 582.039 182.006 595.848" stroke="#181818" stroke-width="0.557937" fill="none" transform="scale(1.00026 1)"/><path d="M227.508 404.786C220.299 414.043 203.395 435.751 191.344 451.228" stroke="#181818" stroke-width="0.557937" fill="none" transform="scale(1.00026 1)"/><path d="M304.679 115.052C300.329 124.174 290.389 145.013 283.224 160.036" stroke="#181818" stroke-width="0.557937" fill="none" transform="scale(1.00026 1)"/><path d="M378.711 39.0835C357.704 59.6267 326.088 90.5559 313.839 102.535" stroke="#181818" stroke-width="0.557937" fill="none" transform="scale(1.00026 1)"/><path d="M311.445 104.875 316.595 102.96 313.44 102.925 313.475 99.7691 311.445 104.875Z" stroke="#181818" stroke-width="0.557937" fill="#181818" transform="scale(1.00026 1)"/><text font-family="Arial,Arial_MSFontService,sans-serif" font-weight="400" font-size="13" transform="matrix(0.558084 0 0 0.557936 360.522 63)">HTTP</text><path d="M409.584 39.1727C421.448 56.0336 436.864 83.0098 436.864 109.356 436.864 109.356 436.864 109.356 436.864 326.951 436.864 346.061 433.273 364.335 429.624 378.881" stroke="#181818" stroke-width="0.557937" fill="none" transform="scale(1.00026 1)"/><path d="M428.81 382.128 432.197 377.801 429.489 379.422 427.867 376.715 428.81 382.128Z" stroke="#181818" stroke-width="0.557937" fill="#181818" transform="scale(1.00026 1)"/><text font-family="Arial,Arial_MSFontService,sans-serif" font-weight="400" font-size="13" transform="matrix(0.558084 0 0 0.557936 437.538 219)">HTTP</text><path d="M340.092 339.261C345.868 347.378 354.181 357.871 363.217 365.448 370.665 371.695 376.527 375.704 385.062 380.523" stroke="#181818" stroke-width="0.557937" fill="none" transform="scale(1.00026 1)"/><path d="M387.977 382.169 384.702 377.757 385.547 380.798 382.507 381.644 387.977 382.169Z" stroke="#181818" stroke-width="0.557937" fill="#181818" transform="scale(1.00026 1)"/><text font-family="Arial,Arial_MSFontService,sans-serif" font-weight="400" font-size="13" transform="matrix(0.558084 0 0 0.557936 363.871 363)">HTTP</text><path d="M296.112 332.955C280.368 337.147 262.625 344.192 249.956 355.963 238.305 366.789 234.055 382.753 232.371 391.442" stroke="#181818" stroke-width="0.557937" fill="none" transform="scale(1.00026 1)"/><path d="M231.734 394.728 234.881 390.223 232.265 391.989 230.499 389.374 231.734 394.728Z" stroke="#181818" stroke-width="0.557937" fill="#181818" transform="scale(1.00026 1)"/><text font-family="Arial,Arial_MSFontService,sans-serif" font-weight="400" font-size="13" transform="matrix(0.558084 0 0 0.557936 250.58 363)">HTTP</text><path d="M319.61 195.32C339.792 205.1 362.389 219.259 377.165 238.239 394.911 261.033 412.655 341.974 420.027 378.658" stroke="#181818" stroke-width="0.557937" fill="none" transform="scale(1.00026 1)"/><path d="M420.686 381.94 421.885 376.577 420.137 379.205 417.509 377.457 420.686 381.94Z" stroke="#181818" stroke-width="0.557937" fill="#181818" transform="scale(1.00026 1)"/><text font-family="Arial,Arial_MSFontService,sans-serif" font-weight="400" font-size="13" transform="matrix(0.558084 0 0 0.557936 400.704 295)">HTTP</text><path d="M259.313 195.334C228.237 229.02 162.796 299.96 145.358 318.863" stroke="#181818" stroke-width="0.557937" fill="none" transform="scale(1.00026 1)"/><path d="M143.088 321.323 148.134 319.146 144.98 319.273 144.853 316.12 143.088 321.323Z" stroke="#181818" stroke-width="0.557937" fill="#181818" transform="scale(1.00026 1)"/><text font-family="Arial,Arial_MSFontService,sans-serif" font-weight="400" font-size="13" transform="matrix(0.558084 0 0 0.557936 219.327 257)">HTTP</text><path d="M276.004 195.462C279.673 262.464 292.719 500.732 294.713 537.151" stroke="#181818" stroke-width="0.557937" fill="none" transform="scale(1.00026 1)"/><path d="M294.896 540.493 296.85 535.357 294.744 537.708 292.393 535.601 294.896 540.493Z" stroke="#181818" stroke-width="0.557937" fill="#181818" transform="scale(1.00026 1)"/><text font-family="Arial,Arial_MSFontService,sans-serif" font-weight="400" font-size="13" transform="matrix(0.558084 0 0 0.557936 286.297 363)">HTTP</text><path d="M223.035 180.87C174.627 186.437 109.913 203.329 109.913 253.861 109.913 253.861 109.913 253.861 109.913 469.504 109.913 507.122 154.058 532.948 169.887 541.076" stroke="#181818" stroke-width="0.557937" fill="none" transform="scale(1.00026 1)"/><path d="M172.865 542.605 169.418 538.327 170.384 541.331 167.379 542.297 172.865 542.605Z" stroke="#181818" stroke-width="0.557937" fill="#181818" transform="scale(1.00026 1)"/><text font-family="Arial,Arial_MSFontService,sans-serif" font-weight="400" font-size="13" transform="matrix(0.558084 0 0 0.557936 110.501 363)">HTTP</text><path d="M223.078 183.438C191.353 188.02 150.605 196.502 117.167 212.016 89.5856 224.812 63.0468 223.456 63.0468 253.861 63.0468 253.861 63.0468 253.861 63.0468 469.504 63.0468 496.411 62.7299 525.356 62.5871 537.154" stroke="#181818" stroke-width="0.557937" fill="none" transform="scale(1.00026 1)"/><path d="M62.5464 540.502 64.8389 535.507 62.5798 537.712 60.3754 535.453 62.5464 540.502Z" stroke="#181818" stroke-width="0.557937" fill="#181818" transform="scale(1.00026 1)"/><text font-family="Arial,Arial_MSFontService,sans-serif" font-weight="400" font-size="13" transform="matrix(0.558084 0 0 0.557936 63.6216 363)">HTTP</text><path d="M287.849 195.416C300.904 212.929 318.314 236.287 326.053 246.668" stroke="#181818" stroke-width="0.557937" fill="none" transform="scale(1.00026 1)"/><path d="M328.053 249.352 326.842 243.992 326.386 247.116 323.263 246.66 328.053 249.352Z" stroke="#181818" stroke-width="0.557937" fill="#181818" transform="scale(1.00026 1)"/><text font-family="Arial,Arial_MSFontService,sans-serif" font-weight="400" font-size="13" transform="matrix(0.558084 0 0 0.557936 307.504 219)">HTTP</text><path d="M307.423 621.642C307.423 637.956 307.423 662.527 307.423 673.385" stroke="#181818" stroke-width="0.557937" fill="none" transform="scale(1.00026 1)"/><path d="M307.423 676.732 309.655 671.711 307.423 673.943 305.191 671.711 307.423 676.732Z" stroke="#181818" stroke-width="0.557937" fill="#181818" transform="scale(1.00026 1)"/><text font-family="Arial,Arial_MSFontService,sans-serif" font-weight="400" font-size="13" transform="matrix(0.558084 0 0 0.557936 308.062 647)">HTTP</text><path d="M327.012 595.703C337.92 587.552 350.487 575.829 356.521 561.842 362.219 548.636 361.931 542.808 356.521 529.482 330.648 465.738 259.374 417.936 239.041 405.253" stroke="#181818" stroke-width="0.557937" fill="none" transform="scale(1.00026 1)"/><path d="M236.2 403.482 239.279 408.033 238.567 404.958 241.642 404.246 236.2 403.482Z" stroke="#181818" stroke-width="0.557937" fill="#181818" transform="scale(1.00026 1)"/><text font-family="Arial,Arial_MSFontService,sans-serif" font-weight="400" font-size="13" transform="matrix(0.558084 0 0 0.557936 349.36 511)">HTTP</text><path d="M207.163 339.355C206.045 347.035 205.519 357.006 208.11 365.448 211.725 377.224 218.731 386.119 224.298 392.19" stroke="#181818" stroke-width="0.557937" fill="none" transform="scale(1.00026 1)"/><path d="M226.561 394.657 224.812 389.447 224.675 392.601 221.522 392.464 226.561 394.657Z" stroke="#181818" stroke-width="0.557937" fill="#181818" transform="scale(1.00026 1)"/><text font-family="Arial,Arial_MSFontService,sans-serif" font-weight="400" font-size="13" transform="matrix(0.558084 0 0 0.557936 208.723 363)">HTTP</text><path d="M170.977 451.335C167.109 441.507 162.414 428.853 159.012 417.336 149.449 384.962 142.639 348.177 140.291 334.819" stroke="#181818" stroke-width="0.557937" fill="none" transform="scale(1.00026 1)"/><path d="M139.712 331.521 138.383 336.853 140.195 334.269 142.779 336.081 139.712 331.521Z" stroke="#181818" stroke-width="0.557937" fill="#181818" transform="scale(1.00026 1)"/><text font-family="Arial,Arial_MSFontService,sans-serif" font-weight="400" font-size="13" transform="matrix(0.558084 0 0 0.557936 159.612 402)">HTTP</text><path d="M177.982 486.658C177.982 504.171 177.982 526.866 177.982 537.248" stroke="#181818" stroke-width="0.557937" fill="none" transform="scale(1.00026 1)"/><path d="M177.982 540.595 180.213 535.574 177.982 537.806 175.75 535.574 177.982 540.595Z" stroke="#181818" stroke-width="0.557937" fill="#181818" transform="scale(1.00026 1)"/><text font-family="Arial,Arial_MSFontService,sans-serif" font-weight="400" font-size="13" transform="matrix(0.558084 0 0 0.557936 178.587 511)">HTTP</text><path d="M204.422 486.564C232.635 504.768 272.439 530.451 287.137 539.935" stroke="#181818" stroke-width="0.557937" fill="none" transform="scale(1.00026 1)"/><path d="M289.95 541.75 286.941 537.152 287.606 540.237 284.521 540.903 289.95 541.75Z" stroke="#181818" stroke-width="0.557937" fill="#181818" transform="scale(1.00026 1)"/><text font-family="Arial,Arial_MSFontService,sans-serif" font-weight="400" font-size="13" transform="matrix(0.558084 0 0 0.557936 244.441 511)">HTTP</text><path d="M151.919 486.564C124.109 504.768 84.9018 530.433 70.4138 539.916" stroke="#181818" stroke-width="0.557937" fill="none" transform="scale(1.00026 1)"/><path d="M67.613 541.75 73.0367 540.867 69.9474 540.222 70.5924 537.132 67.613 541.75Z" stroke="#181818" stroke-width="0.557937" fill="#181818" transform="scale(1.00026 1)"/><text font-family="Arial,Arial_MSFontService,sans-serif" font-weight="400" font-size="13" transform="matrix(0.558084 0 0 0.557936 124.453 511)">HTTP</text></g></svg>