<?xml version="1.0" encoding="windows-1252" standalone="no"?>
<svg xmlns="http://www.w3.org/2000/svg" xmlns:xlink="http://www.w3.org/1999/xlink" contentStyleType="text/css" height="483px" preserveAspectRatio="none" style="width:815px;height:483px;background:#FFFFFF;" version="1.1" viewBox="0 0 815 483" width="815px" zoomAndPan="magnify"><defs/><g><!--cluster System boundary--><g id="cluster_System boundary"><rect fill="none" height="470" rx="2.5" ry="2.5" style="stroke:#181818;stroke-width:1.0;" width="802" x="7" y="7"/><text fill="#000000" font-family="sans-serif" font-size="14" font-weight="bold" lengthAdjust="spacing" textLength="141" x="337.5" y="21.9951">System boundary</text></g><!--cluster DBMS--><g id="cluster_DBMS"><path d="M31,111 C31,101 408,101 408,101 C408,101 785,101 785,111 L785,443 C785,453 408,453 408,453 C408,453 31,453 31,443 L31,111 " fill="none" style="stroke:#181818;stroke-width:1.0;stroke-dasharray:7.0,7.0;"/><path d="M31,111 C31,121 408,121 408,121 C408,121 785,121 785,111 " fill="none" style="stroke:#181818;stroke-width:1.0;stroke-dasharray:7.0,7.0;"/><text fill="#000000" font-family="sans-serif" font-size="14" font-weight="bold" lengthAdjust="spacing" textLength="46" x="385" y="135.9951">DBMS</text></g><!--cluster recog_schema--><g id="cluster_recog_schema"><path d="M431,177 C431,167 592,167 592,167 C592,167 753,167 753,177 L753,402.5 C753,412.5 592,412.5 592,412.5 C592,412.5 431,412.5 431,402.5 L431,177 " fill="none" style="stroke:#181818;stroke-width:1.0;"/><path d="M431,177 C431,187 592,187 592,187 C592,187 753,187 753,177 " fill="none" style="stroke:#181818;stroke-width:1.0;"/><text fill="#000000" font-family="sans-serif" font-size="14" font-weight="bold" lengthAdjust="spacing" textLength="164" x="510" y="201.9951">Recognition schema</text></g><!--cluster workflow_schema--><g id="cluster_workflow_schema"><path d="M63,177 C63,167 227,167 227,167 C227,167 391,167 391,177 L391,411 C391,421 227,421 227,421 C227,421 63,421 63,411 L63,177 " fill="none" style="stroke:#181818;stroke-width:1.0;"/><path d="M63,177 C63,187 227,187 227,187 C227,187 391,187 391,177 " fill="none" style="stroke:#181818;stroke-width:1.0;"/><text fill="#000000" font-family="sans-serif" font-size="14" font-weight="bold" lengthAdjust="spacing" textLength="143" x="155.5" y="201.9951">Workflow schema</text></g><!--entity recog_srvc--><g id="elem_recog_srvc"><polygon fill="#F1F1F1" points="526,63.5,482.5,42,395.5,42,352,63.5,395.5,85,482.5,85,526,63.5" style="stroke:#181818;stroke-width:0.5;"/><text fill="#000000" font-family="sans-serif" font-size="14" lengthAdjust="spacing" textLength="87" x="395.5" y="59.9951">Recognition</text><text fill="#000000" font-family="sans-serif" font-size="14" lengthAdjust="spacing" textLength="51" x="395.5" y="76.292">service</text></g><!--entity workflow_srvc--><g id="elem_workflow_srvc"><polygon fill="#F1F1F1" points="159,63.5,125,42,57,42,23,63.5,57,85,125,85,159,63.5" style="stroke:#181818;stroke-width:0.5;"/><text fill="#000000" font-family="sans-serif" font-size="14" lengthAdjust="spacing" textLength="68" x="57" y="59.9951">Workflow</text><text fill="#000000" font-family="sans-serif" font-size="14" lengthAdjust="spacing" textLength="51" x="57" y="76.292">service</text></g><!--entity tbl1--><g id="elem_tbl1"><rect fill="#F1F1F1" height="39.2969" rx="2.5" ry="2.5" style="stroke:#181818;stroke-width:0.5;" width="107" x="474.5" y="233.5"/><polygon fill="#F1F1F1" points="564.5,238.5,564.5,252.5,576.5,252.5,576.5,244.5,570.5,238.5,564.5,238.5" style="stroke:#181818;stroke-width:0.5;"/><line style="stroke:#181818;stroke-width:0.5;" x1="570.5" x2="570.5" y1="238.5" y2="244.5"/><line style="stroke:#181818;stroke-width:0.5;" x1="576.5" x2="570.5" y1="244.5" y2="244.5"/><text fill="#000000" font-family="sans-serif" font-size="14" lengthAdjust="spacing" textLength="77" x="484.5" y="259.4951">Templates</text></g><!--entity tbl2--><g id="elem_tbl2"><rect fill="#F1F1F1" height="55.5938" rx="2.5" ry="2.5" style="stroke:#181818;stroke-width:0.5;" width="112" x="617" y="225"/><polygon fill="#F1F1F1" points="712,230,712,244,724,244,724,236,718,230,712,230" style="stroke:#181818;stroke-width:0.5;"/><line style="stroke:#181818;stroke-width:0.5;" x1="718" x2="718" y1="230" y2="236"/><line style="stroke:#181818;stroke-width:0.5;" x1="724" x2="718" y1="236" y2="236"/><text fill="#000000" font-family="sans-serif" font-size="14" lengthAdjust="spacing" textLength="73" x="627" y="250.9951">Processed</text><text fill="#000000" font-family="sans-serif" font-size="14" lengthAdjust="spacing" textLength="82" x="627" y="267.292">Documents</text></g><!--entity tbl3--><g id="elem_tbl3"><rect fill="#F1F1F1" height="39.2969" rx="2.5" ry="2.5" style="stroke:#181818;stroke-width:0.5;" width="82" x="487" y="349.5"/><polygon fill="#F1F1F1" points="552,354.5,552,368.5,564,368.5,564,360.5,558,354.5,552,354.5" style="stroke:#181818;stroke-width:0.5;"/><line style="stroke:#181818;stroke-width:0.5;" x1="558" x2="558" y1="354.5" y2="360.5"/><line style="stroke:#181818;stroke-width:0.5;" x1="564" x2="558" y1="360.5" y2="360.5"/><text fill="#000000" font-family="sans-serif" font-size="14" lengthAdjust="spacing" textLength="52" x="497" y="375.4951">Results</text></g><!--entity tbl4--><g id="elem_tbl4"><rect fill="#F1F1F1" height="39.2969" rx="2.5" ry="2.5" style="stroke:#181818;stroke-width:0.5;" width="105" x="106.5" y="233.5"/><polygon fill="#F1F1F1" points="194.5,238.5,194.5,252.5,206.5,252.5,206.5,244.5,200.5,238.5,194.5,238.5" style="stroke:#181818;stroke-width:0.5;"/><line style="stroke:#181818;stroke-width:0.5;" x1="200.5" x2="200.5" y1="238.5" y2="244.5"/><line style="stroke:#181818;stroke-width:0.5;" x1="206.5" x2="200.5" y1="244.5" y2="244.5"/><text fill="#000000" font-family="sans-serif" font-size="14" lengthAdjust="spacing" textLength="75" x="116.5" y="259.4951">Workflows</text></g><!--entity tbl5--><g id="elem_tbl5"><rect fill="#F1F1F1" height="55.5938" rx="2.5" ry="2.5" style="stroke:#181818;stroke-width:0.5;" width="120" x="247" y="225"/><polygon fill="#F1F1F1" points="350,230,350,244,362,244,362,236,356,230,350,230" style="stroke:#181818;stroke-width:0.5;"/><line style="stroke:#181818;stroke-width:0.5;" x1="356" x2="356" y1="230" y2="236"/><line style="stroke:#181818;stroke-width:0.5;" x1="362" x2="356" y1="236" y2="236"/><text fill="#000000" font-family="sans-serif" font-size="14" lengthAdjust="spacing" textLength="77" x="257" y="250.9951">Processing</text><text fill="#000000" font-family="sans-serif" font-size="14" lengthAdjust="spacing" textLength="90" x="257" y="267.292">Applications</text></g><!--entity tbl6--><g id="elem_tbl6"><rect fill="#F1F1F1" height="55.5938" rx="2.5" ry="2.5" style="stroke:#181818;stroke-width:0.5;" width="98" x="110" y="341"/><polygon fill="#F1F1F1" points="191,346,191,360,203,360,203,352,197,346,191,346" style="stroke:#181818;stroke-width:0.5;"/><line style="stroke:#181818;stroke-width:0.5;" x1="197" x2="197" y1="346" y2="352"/><line style="stroke:#181818;stroke-width:0.5;" x1="203" x2="197" y1="352" y2="352"/><text fill="#000000" font-family="sans-serif" font-size="14" lengthAdjust="spacing" textLength="68" x="120" y="366.9951">Workflow</text><text fill="#000000" font-family="sans-serif" font-size="14" lengthAdjust="spacing" textLength="40" x="120" y="383.292">Tasks</text></g><!--link recog_srvc to recog_schema--><g id="link_recog_srvc_recog_schema"><path d="M439,85.282 C439,97.2957 439,113.4932 439,131.0877 C439,139.885 439,149.0315 439,158.1789 C439,160.4657 439,162.7526 439,165.0341 C439,165.6045 439,160.1745 439,160.7442 " fill="none" id="recog_srvc-to-recog_schema" style="stroke:#181818;stroke-width:1.0;"/><polygon fill="#181818" points="439,166.7442,443,157.7442,439,161.7442,435,157.7442,439,166.7442" style="stroke:#181818;stroke-width:1.0;"/></g><!--link workflow_srvc to workflow_schema--><g id="link_workflow_srvc_workflow_schema"><path d="M88.7832,85.282 C87.5017,97.2957 85.774,113.4932 83.8973,131.0877 C82.9589,139.885 81.9833,149.0315 81.0076,158.1789 C80.7636,160.4657 80.5197,162.7526 80.2763,165.0341 C80.2155,165.6045 80.7911,160.2084 80.7303,160.778 " fill="none" id="workflow_srvc-to-workflow_schema" style="stroke:#181818;stroke-width:1.0;"/><polygon fill="#181818" points="80.0939,166.7442,85.026,158.2192,80.6243,161.7724,77.0711,157.3707,80.0939,166.7442" style="stroke:#181818;stroke-width:1.0;"/></g><!--SRC=[RP5FQyCm3CNFzQSmthc3_JqEDdeTZBQmIs0eZfgOEdAmd7PbvBkloTh47hdg_QJt97dK0QYqADNcn05hcRkM2l0d9N_4ei9lA1r9jKRjIZB1ECg8qH-CHYM1fU-5B_O77T6VpkztrXrJz7YfNkW20kJ0P-VLs_j6oHjh26yBu0gBtZi28dV9ki8QOk-XC7Gim0Up0nsascBTM0Z80nboUvVg7zvfPCOYevNJROqKHlG-HTV8hPtKXxFQ9V6kwyRPfcLdurrRngcFi_4CbHczDeqr6lhjH_nfVbn6M-3zI3t_HUr49yJqABbSlYIt4ybd1lbV_5y0]--></g></svg>