<svg width="586" height="523" xmlns="http://www.w3.org/2000/svg" xmlns:xlink="http://www.w3.org/1999/xlink" xml:space="preserve" overflow="hidden"><g><path d="M5.63881 5.63881 9.16307 2.11456 491.987 2.11456 491.987 513.484 488.462 517.009 5.63881 517.009 5.63881 5.63881Z" stroke="#181818" stroke-width="0.352426" fill="none" transform="scale(1.00046 1)"/><path d="M488.462 5.63881 491.987 2.11456" stroke="#181818" stroke-width="0.352426" transform="scale(1.00046 1)"/><path d="M5.63881 5.63881 488.462 5.63881" stroke="#181818" stroke-width="0.352426" fill="none" transform="scale(1.00046 1)"/><path d="M488.462 5.63881 488.462 517.009" stroke="#181818" stroke-width="0.352426" fill="none" transform="scale(1.00046 1)"/><text font-family="Arial,Arial_MSFontService,sans-serif" font-style="italic" font-weight="400" font-size="14" transform="matrix(0.352587 0 0 0.352426 215.255 11)">«execution environment»</text><text font-family="Arial,Arial_MSFontService,sans-serif" font-weight="700" font-size="14" transform="matrix(0.352587 0 0 0.352426 224.598 17)">Microsoft Azure</text><path d="M170.222 28.1941 173.746 24.6698 392.25 24.6698 392.25 485.995 388.726 489.52 170.222 489.52 170.222 28.1941Z" stroke="#181818" stroke-width="0.352426" fill="none" transform="scale(1.00046 1)"/><path d="M388.726 28.1941 392.25 24.6698" stroke="#181818" stroke-width="0.352426" transform="scale(1.00046 1)"/><path d="M170.222 28.1941 388.726 28.1941" stroke="#181818" stroke-width="0.352426" fill="none" transform="scale(1.00046 1)"/><path d="M388.726 28.1941 388.726 489.52" stroke="#181818" stroke-width="0.352426" fill="none" transform="scale(1.00046 1)"/><text font-family="Arial,Arial_MSFontService,sans-serif" font-style="italic" font-weight="400" font-size="14" transform="matrix(0.352587 0 0 0.352426 254.392 34)">«serverless service»</text><text font-family="Arial,Arial_MSFontService,sans-serif" font-weight="700" font-size="14" transform="matrix(0.352587 0 0 0.352426 231.826 40)">Azure Container App Environment</text><path d="M179.032 404.585 182.557 401.061 383.439 401.061 383.439 477.537 379.915 481.061 179.032 481.061 179.032 404.585Z" stroke="#181818" stroke-width="0.352426" fill="none" transform="scale(1.00046 1)"/><path d="M379.915 404.585 383.439 401.061" stroke="#181818" stroke-width="0.352426" transform="scale(1.00046 1)"/><path d="M179.032 404.585 379.915 404.585" stroke="#181818" stroke-width="0.352426" fill="none" transform="scale(1.00046 1)"/><path d="M379.915 404.585 379.915 481.061" stroke="#181818" stroke-width="0.352426" fill="none" transform="scale(1.00046 1)"/><text font-family="Arial,Arial_MSFontService,sans-serif" font-weight="700" font-size="14" transform="matrix(0.352587 0 0 0.352426 230.416 410)">Notification Service Container App</text><path d="M180.971 316.126 184.495 312.602 379.915 312.602 379.915 389.078 376.391 392.602 180.971 392.602 180.971 316.126Z" stroke="#181818" stroke-width="0.352426" fill="none" transform="scale(1.00046 1)"/><path d="M376.391 316.126 379.915 312.602" stroke="#181818" stroke-width="0.352426" transform="scale(1.00046 1)"/><path d="M180.971 316.126 376.391 316.126" stroke="#181818" stroke-width="0.352426" fill="none" transform="scale(1.00046 1)"/><path d="M376.391 316.126 376.391 392.602" stroke="#181818" stroke-width="0.352426" fill="none" transform="scale(1.00046 1)"/><text font-family="Arial,Arial_MSFontService,sans-serif" font-weight="700" font-size="14" transform="matrix(0.352587 0 0 0.352426 233.501 322)">Analytics Service Container App</text><path d="M180.971 227.667 184.495 224.143 373.924 224.143 373.924 300.619 370.4 304.144 180.971 304.144 180.971 227.667Z" stroke="#181818" stroke-width="0.352426" fill="none" transform="scale(1.00046 1)"/><path d="M370.4 227.667 373.924 224.143" stroke="#181818" stroke-width="0.352426" transform="scale(1.00046 1)"/><path d="M180.971 227.667 370.4 227.667" stroke="#181818" stroke-width="0.352426" fill="none" transform="scale(1.00046 1)"/><path d="M370.4 227.667 370.4 304.144" stroke="#181818" stroke-width="0.352426" fill="none" transform="scale(1.00046 1)"/><text font-family="Arial,Arial_MSFontService,sans-serif" font-weight="700" font-size="14" transform="matrix(0.352587 0 0 0.352426 237.556 233)">User Service Container App</text><path d="M180.971 139.208 184.495 135.684 380.444 135.684 380.444 212.16 376.919 215.685 180.971 215.685 180.971 139.208Z" stroke="#181818" stroke-width="0.352426" fill="none" transform="scale(1.00046 1)"/><path d="M376.919 139.208 380.444 135.684" stroke="#181818" stroke-width="0.352426" transform="scale(1.00046 1)"/><path d="M180.971 139.208 376.919 139.208" stroke="#181818" stroke-width="0.352426" fill="none" transform="scale(1.00046 1)"/><path d="M376.919 139.208 376.919 215.685" stroke="#181818" stroke-width="0.352426" fill="none" transform="scale(1.00046 1)"/><text font-family="Arial,Arial_MSFontService,sans-serif" font-weight="700" font-size="14" transform="matrix(0.352587 0 0 0.352426 233.765 145)">Workflow Service Container App</text><path d="M178.68 50.7493 182.204 47.2251 383.792 47.2251 383.792 123.701 380.268 127.226 178.68 127.226 178.68 50.7493Z" stroke="#181818" stroke-width="0.352426" fill="none" transform="scale(1.00046 1)"/><path d="M380.268 50.7493 383.792 47.2251" stroke="#181818" stroke-width="0.352426" transform="scale(1.00046 1)"/><path d="M178.68 50.7493 380.268 50.7493" stroke="#181818" stroke-width="0.352426" fill="none" transform="scale(1.00046 1)"/><path d="M380.268 50.7493 380.268 127.226" stroke="#181818" stroke-width="0.352426" fill="none" transform="scale(1.00046 1)"/><text font-family="Arial,Arial_MSFontService,sans-serif" font-weight="700" font-size="14" transform="matrix(0.352587 0 0 0.352426 230.592 56)">Recognition Service Container App</text><path d="M16.9164 238.945 20.4407 235.42 133.922 235.42 133.922 285.817 130.398 289.342 16.9164 289.342 16.9164 238.945Z" stroke="#181818" stroke-width="0.352426" fill="none" transform="scale(1.00046 1)"/><path d="M130.398 238.945 133.922 235.42" stroke="#181818" stroke-width="0.352426" transform="scale(1.00046 1)"/><path d="M16.9164 238.945 130.398 238.945" stroke="#181818" stroke-width="0.352426" fill="none" transform="scale(1.00046 1)"/><path d="M130.398 238.945 130.398 289.342" stroke="#181818" stroke-width="0.352426" fill="none" transform="scale(1.00046 1)"/><text font-family="Arial,Arial_MSFontService,sans-serif" font-weight="700" font-size="14" transform="matrix(0.352587 0 0 0.352426 28.9122 245)">Azure Database for PostgreSQL</text><path d="M520.709 200.883 524.233 197.358 579.564 197.358 579.564 229.782 576.04 233.306 520.709 233.306 520.709 200.883Z" stroke="#181818" stroke-width="0.352426" fill="none" transform="scale(1.00046 1)"/><path d="M576.04 200.883 579.564 197.358" stroke="#181818" stroke-width="0.352426" transform="scale(1.00046 1)"/><path d="M520.709 200.883 576.04 200.883" stroke="#181818" stroke-width="0.352426" fill="none" transform="scale(1.00046 1)"/><path d="M576.04 200.883 576.04 233.306" stroke="#181818" stroke-width="0.352426" fill="none" transform="scale(1.00046 1)"/><text font-family="Arial,Arial_MSFontService,sans-serif" font-weight="700" font-size="14" transform="matrix(0.352587 0 0 0.352426 540.164 207)">Vercel</text><path d="M420.796 246.522 424.321 242.998 486.348 242.998 486.348 261.533 482.823 265.057 420.796 265.057 420.796 246.522Z" stroke="#181818" stroke-width="0.176213" fill="#F1F1F1" transform="scale(1.00046 1)"/><path d="M482.823 246.522 486.348 242.998" stroke="#181818" stroke-width="0.176213" transform="scale(1.00046 1)"/><path d="M420.796 246.522 482.823 246.522" stroke="#181818" stroke-width="0.176213" fill="none" transform="scale(1.00046 1)"/><path d="M482.823 246.522 482.823 265.057" stroke="#181818" stroke-width="0.176213" fill="none" transform="scale(1.00046 1)"/><text font-family="Arial,Arial_MSFontService,sans-serif" font-style="italic" font-weight="400" font-size="14" transform="matrix(0.352587 0 0 0.352426 432.272 255)">«cloud service»</text><text font-family="Arial,Arial_MSFontService,sans-serif" font-weight="400" font-size="14" transform="matrix(0.352587 0 0 0.352426 426.278 260)">API Gateway Service</text><path d="M187.314 498.683 190.839 495.158 246.169 495.158 246.169 507.951 242.645 511.476 187.314 511.476 187.314 498.683Z" stroke="#181818" stroke-width="0.176213" fill="#F1F1F1" transform="scale(1.00046 1)"/><path d="M242.645 498.683 246.169 495.158" stroke="#181818" stroke-width="0.176213" transform="scale(1.00046 1)"/><path d="M187.314 498.683 242.645 498.683" stroke="#181818" stroke-width="0.176213" fill="none" transform="scale(1.00046 1)"/><path d="M242.645 498.683 242.645 511.476" stroke="#181818" stroke-width="0.176213" fill="none" transform="scale(1.00046 1)"/><text font-family="Arial,Arial_MSFontService,sans-serif" font-weight="400" font-size="14" transform="matrix(0.352587 0 0 0.352426 192.689 507)">Azure Service Bus</text><path d="M376.919 459.211C377.406 459.211 377.801 459.605 377.801 460.092L377.801 474.646C377.801 475.133 377.406 475.527 376.919 475.527L284.936 475.527C284.45 475.527 284.055 475.133 284.055 474.646L284.055 460.092C284.055 459.605 284.45 459.211 284.936 459.211Z" stroke="#181818" stroke-width="0.176213" fill="#F1F1F1" transform="scale(1.00046 1)"/><path d="M370.752 460.973 376.038 460.973 376.038 464.497 370.752 464.497Z" stroke="#181818" stroke-width="0.176213" fill="#F1F1F1" transform="scale(1.00046 1)"/><path d="M370.047 461.678 371.457 461.678 371.457 462.383 370.047 462.383Z" stroke="#181818" stroke-width="0.176213" fill="#F1F1F1" transform="scale(1.00046 1)"/><path d="M370.047 463.088 371.457 463.088 371.457 463.792 370.047 463.792Z" stroke="#181818" stroke-width="0.176213" fill="#F1F1F1" transform="scale(1.00046 1)"/><text font-family="Arial,Arial_MSFontService,sans-serif" font-weight="400" font-size="14" transform="matrix(0.352587 0 0 0.352426 289.474 471)">Notification Service Dapr client</text><path d="M247.932 422.911C248.418 422.911 248.813 423.306 248.813 423.792L248.813 438.346C248.813 438.833 248.418 439.227 247.932 439.227L185.552 439.227C185.066 439.227 184.671 438.833 184.671 438.346L184.671 423.792C184.671 423.306 185.066 422.911 185.552 422.911Z" stroke="#181818" stroke-width="0.176213" fill="#F1F1F1" transform="scale(1.00046 1)"/><path d="M241.764 424.673 247.051 424.673 247.051 428.197 241.764 428.197Z" stroke="#181818" stroke-width="0.176213" fill="#F1F1F1" transform="scale(1.00046 1)"/><path d="M241.059 425.378 242.469 425.378 242.469 426.083 241.059 426.083Z" stroke="#181818" stroke-width="0.176213" fill="#F1F1F1" transform="scale(1.00046 1)"/><path d="M241.059 426.788 242.469 426.788 242.469 427.493 241.059 427.493Z" stroke="#181818" stroke-width="0.176213" fill="#F1F1F1" transform="scale(1.00046 1)"/><text font-family="Arial,Arial_MSFontService,sans-serif" font-weight="400" font-size="14" transform="matrix(0.352587 0 0 0.352426 190.045 435)">Notification Service</text><path d="M333.747 431.017C333.747 432.574 332.485 433.836 330.928 433.836 329.371 433.836 328.108 432.574 328.108 431.017 328.108 429.46 329.371 428.197 330.928 428.197 332.485 428.197 333.747 429.46 333.747 431.017Z" stroke="#181818" stroke-width="0.176213" fill="#F1F1F1" transform="scale(1.00046 1)"/><text font-family="Arial,Arial_MSFontService,sans-serif" font-weight="400" font-size="14" transform="matrix(0.352587 0 0 0.352426 306.046 442)">Notification Service</text><text font-family="Arial,Arial_MSFontService,sans-serif" font-weight="400" font-size="14" transform="matrix(0.352587 0 0 0.352426 306.046 447)">REST API</text><path d="M245.993 451.458C246.48 451.458 246.874 451.852 246.874 452.339L246.874 466.893C246.874 467.379 246.48 467.774 245.993 467.774L187.491 467.774C187.004 467.774 186.609 467.379 186.609 466.893L186.609 452.339C186.609 451.852 187.004 451.458 187.491 451.458Z" stroke="#181818" stroke-width="0.176213" fill="#F1F1F1" transform="scale(1.00046 1)"/><path d="M239.826 453.22 245.112 453.22 245.112 456.744 239.826 456.744Z" stroke="#181818" stroke-width="0.176213" fill="#F1F1F1" transform="scale(1.00046 1)"/><path d="M239.121 453.925 240.531 453.925 240.531 454.629 239.121 454.629Z" stroke="#181818" stroke-width="0.176213" fill="#F1F1F1" transform="scale(1.00046 1)"/><path d="M239.121 455.334 240.531 455.334 240.531 456.039 239.121 456.039Z" stroke="#181818" stroke-width="0.176213" fill="#F1F1F1" transform="scale(1.00046 1)"/><text font-family="Arial,Arial_MSFontService,sans-serif" font-weight="400" font-size="14" transform="matrix(0.352587 0 0 0.352426 191.984 463)">Service connector</text><path d="M373.395 370.752C373.882 370.752 374.276 371.146 374.276 371.633L374.276 386.187C374.276 386.674 373.882 387.068 373.395 387.068L288.461 387.068C287.974 387.068 287.579 386.674 287.579 386.187L287.579 371.633C287.579 371.146 287.974 370.752 288.461 370.752Z" stroke="#181818" stroke-width="0.176213" fill="#F1F1F1" transform="scale(1.00046 1)"/><path d="M367.228 372.514 372.514 372.514 372.514 376.038 367.228 376.038Z" stroke="#181818" stroke-width="0.176213" fill="#F1F1F1" transform="scale(1.00046 1)"/><path d="M366.523 373.219 367.933 373.219 367.933 373.924 366.523 373.924Z" stroke="#181818" stroke-width="0.176213" fill="#F1F1F1" transform="scale(1.00046 1)"/><path d="M366.523 374.629 367.933 374.629 367.933 375.334 366.523 375.334Z" stroke="#181818" stroke-width="0.176213" fill="#F1F1F1" transform="scale(1.00046 1)"/><text font-family="Arial,Arial_MSFontService,sans-serif" font-weight="400" font-size="14" transform="matrix(0.352587 0 0 0.352426 293 382)">Analytics Service Dapr client</text><path d="M244.407 334.452C244.894 334.452 245.288 334.847 245.288 335.333L245.288 349.887C245.288 350.374 244.894 350.768 244.407 350.768L189.076 350.768C188.59 350.768 188.195 350.374 188.195 349.887L188.195 335.333C188.195 334.847 188.59 334.452 189.076 334.452Z" stroke="#181818" stroke-width="0.176213" fill="#F1F1F1" transform="scale(1.00046 1)"/><path d="M238.24 336.214 243.526 336.214 243.526 339.739 238.24 339.739Z" stroke="#181818" stroke-width="0.176213" fill="#F1F1F1" transform="scale(1.00046 1)"/><path d="M237.535 336.919 238.945 336.919 238.945 337.624 237.535 337.624Z" stroke="#181818" stroke-width="0.176213" fill="#F1F1F1" transform="scale(1.00046 1)"/><path d="M237.535 338.329 238.945 338.329 238.945 339.034 237.535 339.034Z" stroke="#181818" stroke-width="0.176213" fill="#F1F1F1" transform="scale(1.00046 1)"/><text font-family="Arial,Arial_MSFontService,sans-serif" font-weight="400" font-size="14" transform="matrix(0.352587 0 0 0.352426 193.57 346)">Analytics Service</text><path d="M333.747 342.558C333.747 344.115 332.485 345.377 330.928 345.377 329.371 345.377 328.108 344.115 328.108 342.558 328.108 341.001 329.371 339.739 330.928 339.739 332.485 339.739 333.747 341.001 333.747 342.558Z" stroke="#181818" stroke-width="0.176213" fill="#F1F1F1" transform="scale(1.00046 1)"/><text font-family="Arial,Arial_MSFontService,sans-serif" font-weight="400" font-size="14" transform="matrix(0.352587 0 0 0.352426 309.572 353)">Analytics Service</text><text font-family="Arial,Arial_MSFontService,sans-serif" font-weight="400" font-size="14" transform="matrix(0.352587 0 0 0.352426 309.572 359)">REST API</text><path d="M245.993 362.999C246.48 362.999 246.874 363.393 246.874 363.88L246.874 378.434C246.874 378.92 246.48 379.315 245.993 379.315L187.491 379.315C187.004 379.315 186.609 378.92 186.609 378.434L186.609 363.88C186.609 363.393 187.004 362.999 187.491 362.999Z" stroke="#181818" stroke-width="0.176213" fill="#F1F1F1" transform="scale(1.00046 1)"/><path d="M239.826 364.761 245.112 364.761 245.112 368.285 239.826 368.285Z" stroke="#181818" stroke-width="0.176213" fill="#F1F1F1" transform="scale(1.00046 1)"/><path d="M239.121 365.466 240.531 365.466 240.531 366.17 239.121 366.17Z" stroke="#181818" stroke-width="0.176213" fill="#F1F1F1" transform="scale(1.00046 1)"/><path d="M239.121 366.875 240.531 366.875 240.531 367.58 239.121 367.58Z" stroke="#181818" stroke-width="0.176213" fill="#F1F1F1" transform="scale(1.00046 1)"/><text font-family="Arial,Arial_MSFontService,sans-serif" font-weight="400" font-size="14" transform="matrix(0.352587 0 0 0.352426 191.984 375)">Service connector</text><path d="M367.404 282.293C367.891 282.293 368.285 282.688 368.285 283.174L368.285 297.728C368.285 298.215 367.891 298.609 367.404 298.609L294.452 298.609C293.965 298.609 293.571 298.215 293.571 297.728L293.571 283.174C293.571 282.688 293.965 282.293 294.452 282.293Z" stroke="#181818" stroke-width="0.176213" fill="#F1F1F1" transform="scale(1.00046 1)"/><path d="M361.237 284.055 366.523 284.055 366.523 287.579 361.237 287.579Z" stroke="#181818" stroke-width="0.176213" fill="#F1F1F1" transform="scale(1.00046 1)"/><path d="M360.532 284.76 361.941 284.76 361.941 285.465 360.532 285.465Z" stroke="#181818" stroke-width="0.176213" fill="#F1F1F1" transform="scale(1.00046 1)"/><path d="M360.532 286.17 361.941 286.17 361.941 286.875 360.532 286.875Z" stroke="#181818" stroke-width="0.176213" fill="#F1F1F1" transform="scale(1.00046 1)"/><text font-family="Arial,Arial_MSFontService,sans-serif" font-weight="400" font-size="14" transform="matrix(0.352587 0 0 0.352426 298.994 294)">User Service Dapr client</text><path d="M238.416 248.108C238.903 248.108 239.297 248.502 239.297 248.989L239.297 263.543C239.297 264.03 238.903 264.424 238.416 264.424L195.068 264.424C194.581 264.424 194.187 264.03 194.187 263.543L194.187 248.989C194.187 248.502 194.581 248.108 195.068 248.108Z" stroke="#181818" stroke-width="0.176213" fill="#F1F1F1" transform="scale(1.00046 1)"/><path d="M232.249 249.87 237.535 249.87 237.535 253.394 232.249 253.394Z" stroke="#181818" stroke-width="0.176213" fill="#F1F1F1" transform="scale(1.00046 1)"/><path d="M231.544 250.575 232.954 250.575 232.954 251.28 231.544 251.28Z" stroke="#181818" stroke-width="0.176213" fill="#F1F1F1" transform="scale(1.00046 1)"/><path d="M231.544 251.984 232.954 251.984 232.954 252.689 231.544 252.689Z" stroke="#181818" stroke-width="0.176213" fill="#F1F1F1" transform="scale(1.00046 1)"/><text font-family="Arial,Arial_MSFontService,sans-serif" font-weight="400" font-size="14" transform="matrix(0.352587 0 0 0.352426 199.564 260)">User Service</text><path d="M333.747 254.099C333.747 255.656 332.485 256.918 330.928 256.918 329.371 256.918 328.108 255.656 328.108 254.099 328.108 252.542 329.371 251.28 330.928 251.28 332.485 251.28 333.747 252.542 333.747 254.099Z" stroke="#181818" stroke-width="0.176213" fill="#F1F1F1" transform="scale(1.00046 1)"/><text font-family="Arial,Arial_MSFontService,sans-serif" font-weight="400" font-size="14" transform="matrix(0.352587 0 0 0.352426 315.566 265)">User Service</text><text font-family="Arial,Arial_MSFontService,sans-serif" font-weight="400" font-size="14" transform="matrix(0.352587 0 0 0.352426 315.566 270)">REST API</text><path d="M245.993 278.416C246.48 278.416 246.874 278.811 246.874 279.298L246.874 293.852C246.874 294.338 246.48 294.733 245.993 294.733L187.491 294.733C187.004 294.733 186.609 294.338 186.609 293.852L186.609 279.298C186.609 278.811 187.004 278.416 187.491 278.416Z" stroke="#181818" stroke-width="0.176213" fill="#F1F1F1" transform="scale(1.00046 1)"/><path d="M239.826 280.179 245.112 280.179 245.112 283.703 239.826 283.703Z" stroke="#181818" stroke-width="0.176213" fill="#F1F1F1" transform="scale(1.00046 1)"/><path d="M239.121 280.883 240.531 280.883 240.531 281.588 239.121 281.588Z" stroke="#181818" stroke-width="0.176213" fill="#F1F1F1" transform="scale(1.00046 1)"/><path d="M239.121 282.293 240.531 282.293 240.531 282.998 239.121 282.998Z" stroke="#181818" stroke-width="0.176213" fill="#F1F1F1" transform="scale(1.00046 1)"/><text font-family="Arial,Arial_MSFontService,sans-serif" font-weight="400" font-size="14" transform="matrix(0.352587 0 0 0.352426 191.984 290)">Service connector</text><path d="M373.924 193.834C374.41 193.834 374.805 194.229 374.805 194.715L374.805 209.269C374.805 209.756 374.41 210.15 373.924 210.15L287.932 210.15C287.445 210.15 287.051 209.756 287.051 209.269L287.051 194.715C287.051 194.229 287.445 193.834 287.932 193.834Z" stroke="#181818" stroke-width="0.176213" fill="#F1F1F1" transform="scale(1.00046 1)"/><path d="M367.756 195.596 373.043 195.596 373.043 199.121 367.756 199.121Z" stroke="#181818" stroke-width="0.176213" fill="#F1F1F1" transform="scale(1.00046 1)"/><path d="M367.052 196.301 368.461 196.301 368.461 197.006 367.052 197.006Z" stroke="#181818" stroke-width="0.176213" fill="#F1F1F1" transform="scale(1.00046 1)"/><path d="M367.052 197.711 368.461 197.711 368.461 198.416 367.052 198.416Z" stroke="#181818" stroke-width="0.176213" fill="#F1F1F1" transform="scale(1.00046 1)"/><text font-family="Arial,Arial_MSFontService,sans-serif" font-weight="400" font-size="14" transform="matrix(0.352587 0 0 0.352426 292.471 205)">Workflow Service Dapr client</text><path d="M244.936 161.411C245.423 161.411 245.817 161.806 245.817 162.292L245.817 176.846C245.817 177.333 245.423 177.727 244.936 177.727L188.548 177.727C188.061 177.727 187.667 177.333 187.667 176.846L187.667 162.292C187.667 161.806 188.061 161.411 188.548 161.411Z" stroke="#181818" stroke-width="0.176213" fill="#F1F1F1" transform="scale(1.00046 1)"/><path d="M238.769 163.173 244.055 163.173 244.055 166.697 238.769 166.697Z" stroke="#181818" stroke-width="0.176213" fill="#F1F1F1" transform="scale(1.00046 1)"/><path d="M238.064 163.878 239.473 163.878 239.473 164.583 238.064 164.583Z" stroke="#181818" stroke-width="0.176213" fill="#F1F1F1" transform="scale(1.00046 1)"/><path d="M238.064 165.288 239.473 165.288 239.473 165.993 238.064 165.993Z" stroke="#181818" stroke-width="0.176213" fill="#F1F1F1" transform="scale(1.00046 1)"/><text font-family="Arial,Arial_MSFontService,sans-serif" font-weight="400" font-size="14" transform="matrix(0.352587 0 0 0.352426 193.042 173)">Workflow Service</text><path d="M333.747 165.64C333.747 167.197 332.485 168.46 330.928 168.46 329.371 168.46 328.108 167.197 328.108 165.64 328.108 164.083 329.371 162.821 330.928 162.821 332.485 162.821 333.747 164.083 333.747 165.64Z" stroke="#181818" stroke-width="0.176213" fill="#F1F1F1" transform="scale(1.00046 1)"/><text font-family="Arial,Arial_MSFontService,sans-serif" font-weight="400" font-size="14" transform="matrix(0.352587 0 0 0.352426 309.043 176)">Workflow Service</text><text font-family="Arial,Arial_MSFontService,sans-serif" font-weight="400" font-size="14" transform="matrix(0.352587 0 0 0.352426 309.043 182)">REST API</text><path d="M245.993 193.834C246.48 193.834 246.874 194.229 246.874 194.715L246.874 209.269C246.874 209.756 246.48 210.15 245.993 210.15L187.491 210.15C187.004 210.15 186.609 209.756 186.609 209.269L186.609 194.715C186.609 194.229 187.004 193.834 187.491 193.834Z" stroke="#181818" stroke-width="0.176213" fill="#F1F1F1" transform="scale(1.00046 1)"/><path d="M239.826 195.596 245.112 195.596 245.112 199.121 239.826 199.121Z" stroke="#181818" stroke-width="0.176213" fill="#F1F1F1" transform="scale(1.00046 1)"/><path d="M239.121 196.301 240.531 196.301 240.531 197.006 239.121 197.006Z" stroke="#181818" stroke-width="0.176213" fill="#F1F1F1" transform="scale(1.00046 1)"/><path d="M239.121 197.711 240.531 197.711 240.531 198.416 239.121 198.416Z" stroke="#181818" stroke-width="0.176213" fill="#F1F1F1" transform="scale(1.00046 1)"/><text font-family="Arial,Arial_MSFontService,sans-serif" font-weight="400" font-size="14" transform="matrix(0.352587 0 0 0.352426 191.984 205)">Service connector</text><path d="M377.272 105.375C377.759 105.375 378.153 105.77 378.153 106.256L378.153 120.811C378.153 121.297 377.759 121.692 377.272 121.692L284.584 121.692C284.097 121.692 283.703 121.297 283.703 120.811L283.703 106.256C283.703 105.77 284.097 105.375 284.584 105.375Z" stroke="#181818" stroke-width="0.176213" fill="#F1F1F1" transform="scale(1.00046 1)"/><path d="M371.104 107.137 376.391 107.137 376.391 110.662 371.104 110.662Z" stroke="#181818" stroke-width="0.176213" fill="#F1F1F1" transform="scale(1.00046 1)"/><path d="M370.4 107.842 371.809 107.842 371.809 108.547 370.4 108.547Z" stroke="#181818" stroke-width="0.176213" fill="#F1F1F1" transform="scale(1.00046 1)"/><path d="M370.4 109.252 371.809 109.252 371.809 109.957 370.4 109.957Z" stroke="#181818" stroke-width="0.176213" fill="#F1F1F1" transform="scale(1.00046 1)"/><text font-family="Arial,Arial_MSFontService,sans-serif" font-weight="400" font-size="14" transform="matrix(0.352587 0 0 0.352426 289.122 117)">Recognition Service Dapr client</text><path d="M248.284 72.9522C248.771 72.9522 249.165 73.3466 249.165 73.8332L249.165 88.3873C249.165 88.8739 248.771 89.2684 248.284 89.2684L185.2 89.2684C184.713 89.2684 184.319 88.8739 184.319 88.3873L184.319 73.8332C184.319 73.3466 184.713 72.9522 185.2 72.9522Z" stroke="#181818" stroke-width="0.176213" fill="#F1F1F1" transform="scale(1.00046 1)"/><path d="M242.117 74.7143 247.403 74.7143 247.403 78.2385 242.117 78.2385Z" stroke="#181818" stroke-width="0.176213" fill="#F1F1F1" transform="scale(1.00046 1)"/><path d="M241.412 75.4191 242.821 75.4191 242.821 76.124 241.412 76.124Z" stroke="#181818" stroke-width="0.176213" fill="#F1F1F1" transform="scale(1.00046 1)"/><path d="M241.412 76.8288 242.821 76.8288 242.821 77.5337 241.412 77.5337Z" stroke="#181818" stroke-width="0.176213" fill="#F1F1F1" transform="scale(1.00046 1)"/><text font-family="Arial,Arial_MSFontService,sans-serif" font-weight="400" font-size="14" transform="matrix(0.352587 0 0 0.352426 189.692 85)">Recognition Service</text><path d="M333.747 77.1813C333.747 78.7384 332.485 80.0007 330.928 80.0007 329.371 80.0007 328.108 78.7384 328.108 77.1813 328.108 75.6242 329.371 74.3619 330.928 74.3619 332.485 74.3619 333.747 75.6242 333.747 77.1813Z" stroke="#181818" stroke-width="0.176213" fill="#F1F1F1" transform="scale(1.00046 1)"/><text font-family="Arial,Arial_MSFontService,sans-serif" font-weight="400" font-size="14" transform="matrix(0.352587 0 0 0.352426 305.693 88)">Recognition Service</text><text font-family="Arial,Arial_MSFontService,sans-serif" font-weight="400" font-size="14" transform="matrix(0.352587 0 0 0.352426 305.693 93)">REST API</text><path d="M245.993 105.375C246.48 105.375 246.874 105.77 246.874 106.256L246.874 120.811C246.874 121.297 246.48 121.692 245.993 121.692L187.491 121.692C187.004 121.692 186.609 121.297 186.609 120.811L186.609 106.256C186.609 105.77 187.004 105.375 187.491 105.375Z" stroke="#181818" stroke-width="0.176213" fill="#F1F1F1" transform="scale(1.00046 1)"/><path d="M239.826 107.137 245.112 107.137 245.112 110.662 239.826 110.662Z" stroke="#181818" stroke-width="0.176213" fill="#F1F1F1" transform="scale(1.00046 1)"/><path d="M239.121 107.842 240.531 107.842 240.531 108.547 239.121 108.547Z" stroke="#181818" stroke-width="0.176213" fill="#F1F1F1" transform="scale(1.00046 1)"/><path d="M239.121 109.252 240.531 109.252 240.531 109.957 239.121 109.957Z" stroke="#181818" stroke-width="0.176213" fill="#F1F1F1" transform="scale(1.00046 1)"/><text font-family="Arial,Arial_MSFontService,sans-serif" font-weight="400" font-size="14" transform="matrix(0.352587 0 0 0.352426 191.984 117)">Service connector</text><path d="M52.5115 255.861C52.5115 252.337 75.2429 252.337 75.2429 252.337 75.2429 252.337 97.9744 252.337 97.9744 255.861L97.9744 270.52C97.9744 274.044 75.2429 274.044 75.2429 274.044 75.2429 274.044 52.5115 274.044 52.5115 270.52L52.5115 255.861" stroke="#181818" stroke-width="0.176213" fill="#F1F1F1" transform="scale(1.00046 1)"/><path d="M52.5115 255.861C52.5115 259.385 75.2429 259.385 75.2429 259.385 75.2429 259.385 97.9744 259.385 97.9744 255.861" stroke="#181818" stroke-width="0.176213" fill="none" transform="scale(1.00046 1)"/><text font-family="Arial,Arial_MSFontService,sans-serif" font-style="italic" font-weight="400" font-size="14" transform="matrix(0.352587 0 0 0.352426 60.4687 265)">«database»</text><text font-family="Arial,Arial_MSFontService,sans-serif" font-weight="400" font-size="14" transform="matrix(0.352587 0 0 0.352426 56.0614 271)">PostgreSQL DB</text><path d="M526.348 214.98 529.872 211.456 573.926 211.456 573.926 224.248 570.401 227.772 526.348 227.772 526.348 214.98Z" stroke="#181818" stroke-width="0.176213" fill="#F1F1F1" transform="scale(1.00046 1)"/><path d="M570.401 214.98 573.926 211.456" stroke="#181818" stroke-width="0.176213" transform="scale(1.00046 1)"/><path d="M526.348 214.98 570.401 214.98" stroke="#181818" stroke-width="0.176213" fill="none" transform="scale(1.00046 1)"/><path d="M570.401 214.98 570.401 227.772" stroke="#181818" stroke-width="0.176213" fill="none" transform="scale(1.00046 1)"/><text font-family="Arial,Arial_MSFontService,sans-serif" font-weight="400" font-size="14" transform="matrix(0.352587 0 0 0.352426 531.878 223)">Svelte server</text><path d="M520.533 249.518 524.057 245.993 579.741 245.993 579.741 258.785 576.216 262.31 520.533 262.31 520.533 249.518Z" stroke="#181818" stroke-width="0.176213" fill="#F1F1F1" transform="scale(1.00046 1)"/><path d="M576.216 249.518 579.741 245.993" stroke="#181818" stroke-width="0.176213" transform="scale(1.00046 1)"/><path d="M520.533 249.518 576.216 249.518" stroke="#181818" stroke-width="0.176213" fill="none" transform="scale(1.00046 1)"/><path d="M576.216 249.518 576.216 262.31" stroke="#181818" stroke-width="0.176213" fill="none" transform="scale(1.00046 1)"/><text font-family="Arial,Arial_MSFontService,sans-serif" font-weight="400" font-size="14" transform="matrix(0.352587 0 0 0.352426 526.06 258)">Klientské zařízení</text><path d="M248.856 431.017C277.576 431.017 316.962 431.017 327.748 431.017" stroke="#181818" stroke-width="0.352426" fill="none" transform="scale(1.00046 1)"/><path d="M240.931 439.151C253.605 443.429 269.469 448.709 283.703 453.22 289.94 455.197 296.666 457.258 303.022 459.179" stroke="#181818" stroke-width="0.352426" fill="none" transform="scale(1.00046 1)"/><text font-family="Arial,Arial_MSFontService,sans-serif" font-weight="400" font-size="13" transform="matrix(0.352587 0 0 0.352426 260.738 444)">HTTP</text><path d="M334.128 430.044C343.948 426.548 376.803 413.723 395.069 392.602 429.276 353.057 445.572 290.496 451.028 265.23" stroke="#181818" stroke-width="0.352426" fill="none" transform="scale(1.00046 1)"/><text font-family="Arial,Arial_MSFontService,sans-serif" font-weight="400" font-size="13" transform="matrix(0.352587 0 0 0.352426 398.424 371)">HTTP</text><path d="M245.292 342.558C274.174 342.558 316.399 342.558 327.704 342.558" stroke="#181818" stroke-width="0.352426" fill="none" transform="scale(1.00046 1)"/><path d="M240.931 350.694C253.605 354.97 269.469 360.25 283.703 364.761 289.94 366.738 296.666 368.8 303.022 370.72" stroke="#181818" stroke-width="0.352426" fill="none" transform="scale(1.00046 1)"/><text font-family="Arial,Arial_MSFontService,sans-serif" font-weight="400" font-size="13" transform="matrix(0.352587 0 0 0.352426 260.738 356)">HTTP</text><path d="M334.187 341.037C343.415 336.159 372.761 320.284 395.069 304.144 412.01 291.886 430.044 275.841 441.459 265.264" stroke="#181818" stroke-width="0.352426" fill="none" transform="scale(1.00046 1)"/><text font-family="Arial,Arial_MSFontService,sans-serif" font-weight="400" font-size="13" transform="matrix(0.352587 0 0 0.352426 398.424 291)">HTTP</text><path d="M239.379 255.798C268.039 255.264 315.573 254.379 327.693 254.153" stroke="#181818" stroke-width="0.352426" fill="none" transform="scale(1.00046 1)"/><path d="M239.448 262.96C252.377 266.861 268.957 271.861 283.703 276.302 290.131 278.238 297.055 280.321 303.557 282.277" stroke="#181818" stroke-width="0.352426" fill="none" transform="scale(1.00046 1)"/><text font-family="Arial,Arial_MSFontService,sans-serif" font-weight="400" font-size="13" transform="matrix(0.352587 0 0 0.352426 260.738 268)">HTTP</text><path d="M334.174 254.099C345.752 254.099 389.607 254.099 420.712 254.099" stroke="#181818" stroke-width="0.352426" fill="none" transform="scale(1.00046 1)"/><text font-family="Arial,Arial_MSFontService,sans-serif" font-weight="400" font-size="13" transform="matrix(0.352587 0 0 0.352426 398.424 253)">HTTP</text><path d="M245.877 168.534C274.769 167.547 316.555 166.119 327.736 165.739" stroke="#181818" stroke-width="0.352426" fill="none" transform="scale(1.00046 1)"/><path d="M245.584 177.657C262.884 182.6 284.888 188.887 302.173 193.825" stroke="#181818" stroke-width="0.352426" fill="none" transform="scale(1.00046 1)"/><text font-family="Arial,Arial_MSFontService,sans-serif" font-weight="400" font-size="13" transform="matrix(0.352587 0 0 0.352426 260.738 180)">HTTP</text><path d="M334.187 166.105C343.665 167.73 374.255 173.825 395.069 187.843 417.283 202.804 436.3 228.272 446.111 242.891" stroke="#181818" stroke-width="0.352426" fill="none" transform="scale(1.00046 1)"/><path d="M249.31 79.9584C277.88 78.9822 316.722 77.6535 327.624 77.2835" stroke="#181818" stroke-width="0.352426" fill="none" transform="scale(1.00046 1)"/><path d="M245.584 89.199C262.884 94.14 284.888 100.427 302.173 105.365" stroke="#181818" stroke-width="0.352426" fill="none" transform="scale(1.00046 1)"/><text font-family="Arial,Arial_MSFontService,sans-serif" font-weight="400" font-size="13" transform="matrix(0.352587 0 0 0.352426 260.209 92)">GRPC</text><path d="M334.137 77.3258C343.99 77.9707 376.934 81.4104 395.069 99.0317 437.343 140.107 449.202 214.834 452.25 242.979" stroke="#181818" stroke-width="0.352426" fill="none" transform="scale(1.00046 1)"/><path d="M76.3802 289.435C76.4014 289.511 76.4229 289.588 76.4447 289.666 76.6199 290.293 76.8221 291.008 77.0523 291.807 77.9728 295.001 79.3353 299.528 81.1577 305.069 84.8028 316.152 90.2869 331.291 97.7499 347.936 112.677 381.226 135.52 420.539 167.402 445.466 172.945 449.801 179.769 452.8 186.545 454.88" stroke="#181818" stroke-width="0.352426" fill="none" transform="scale(1.00046 1)"/><text font-family="Arial,Arial_MSFontService,sans-serif" font-weight="400" font-size="13" transform="matrix(0.352587 0 0 0.352426 151.26 431)">ODBC</text><path d="M78.5459 289.482C78.5948 289.531 78.6445 289.58 78.6946 289.629 78.8955 289.827 79.1052 290.034 79.324 290.249 79.7621 290.679 80.2357 291.142 80.7446 291.637 81.7617 292.626 82.9177 293.74 84.2023 294.962 89.34 299.852 96.5302 306.474 105.089 313.764 122.206 328.344 144.8 345.598 167.402 357.007 173.367 360.017 180.074 362.481 186.568 364.454" stroke="#181818" stroke-width="0.352426" fill="none" transform="scale(1.00046 1)"/><text font-family="Arial,Arial_MSFontService,sans-serif" font-weight="400" font-size="13" transform="matrix(0.352587 0 0 0.352426 151.26 346)">ODBC</text><path d="M133.928 286.522C139.969 286.522 146.132 286.522 152.233 286.522 164.433 286.522 176.382 286.522 186.598 286.522" stroke="#181818" stroke-width="0.352426" fill="none" transform="scale(1.00046 1)"/><text font-family="Arial,Arial_MSFontService,sans-serif" font-weight="400" font-size="13" transform="matrix(0.352587 0 0 0.352426 151.26 285)">ODBC</text><path d="M134.058 282.838C134.158 282.792 134.258 282.745 134.358 282.698 134.558 282.604 134.757 282.508 134.955 282.411 136.542 281.636 138.081 280.777 139.561 279.826 160.058 266.654 150.404 250.057 167.402 232.601 176.537 223.221 189.088 215.436 199.2 210.058" stroke="#181818" stroke-width="0.352426" fill="none" transform="scale(1.00046 1)"/><text font-family="Arial,Arial_MSFontService,sans-serif" font-weight="400" font-size="13" transform="matrix(0.352587 0 0 0.352426 151.26 234)">ODBC</text><path d="M89.6015 289.375C89.6885 289.387 89.7763 289.399 89.864 289.412 90.215 289.461 90.5703 289.509 90.9301 289.557 93.8087 289.935 96.9598 290.246 100.263 290.405 113.478 291.045 129.137 289.275 139.561 279.826 140.986 278.534 166.305 145.721 167.402 144.142 174.384 134.087 185.837 126.655 195.914 121.626" stroke="#181818" stroke-width="0.352426" fill="none" transform="scale(1.00046 1)"/><text font-family="Arial,Arial_MSFontService,sans-serif" font-weight="400" font-size="13" transform="matrix(0.352587 0 0 0.352426 151.26 155)">ODBC</text><path d="M246.182 504.388C254.985 504.043 264.581 502.965 273.13 500.445 290.909 495.204 309.046 483.451 320.059 475.451" stroke="#181818" stroke-width="0.352426" fill="none" transform="scale(1.00046 1)"/><path d="M246.217 499.994C259.303 498.39 272.079 496.579 273.13 495.511 300.151 468.078 263.349 442.206 283.703 409.519 289.974 399.45 300.913 392.014 310.647 386.988" stroke="#181818" stroke-width="0.352426" fill="none" transform="scale(1.00046 1)"/><path d="M310.032 298.562C300.323 303.544 289.593 310.931 283.703 321.06 264.612 353.892 298.001 462.933 273.13 491.634 272.628 492.212 259.569 494.94 246.185 497.608" stroke="#181818" stroke-width="0.352426" fill="none" transform="scale(1.00046 1)"/><path d="M246.226 495.557C250.749 494.358 255.369 493.139 259.738 491.987 265.689 490.418 269.272 493.259 273.13 488.462 290.964 466.291 269.654 257.344 283.703 232.601 289.489 222.412 300.213 215.021 309.944 210.053" stroke="#181818" stroke-width="0.352426" fill="none" transform="scale(1.00046 1)"/><path d="M241.141 495.12C255.398 490.055 271.085 483.972 273.13 481.061 294.661 450.414 265.371 176.803 283.703 144.142 289.414 133.968 300.07 126.595 309.78 121.633" stroke="#181818" stroke-width="0.352426" fill="none" transform="scale(1.00046 1)"/><path d="M550.137 245.914C550.137 240.408 550.137 233.181 550.137 227.688" stroke="#181818" stroke-width="0.352426" fill="none" transform="scale(1.00046 1)"/><text font-family="Arial,Arial_MSFontService,sans-serif" font-weight="400" font-size="13" transform="matrix(0.352587 0 0 0.352426 540.516 238)">HTTP</text><path d="M486.379 254.099C497.403 254.099 509.654 254.099 520.424 254.099" stroke="#181818" stroke-width="0.352426" fill="none" transform="scale(1.00046 1)"/><text font-family="Arial,Arial_MSFontService,sans-serif" font-weight="400" font-size="13" transform="matrix(0.352587 0 0 0.352426 498.206 253)">HTTP</text></g></svg>